<?xml version="1.0" encoding="UTF-8"?>
<svg version="1.1" xmlns="http://www.w3.org/2000/svg" width="3749" height="495">
<path d="M0 0 C196 0 196 0 198 1 C199.81171098 1.15306901 201.6283794 1.24946661 203.4453125 1.31640625 C204.52167969 1.35830078 205.59804687 1.40019531 206.70703125 1.44335938 C208.39892578 1.50233398 208.39892578 1.50233398 210.125 1.5625 C211.26066406 1.60568359 212.39632812 1.64886719 213.56640625 1.69335938 C216.37747768 1.7996604 219.18863945 1.90169405 222 2 C222 2.66 222 3.32 222 4 C226.62 4 231.24 4 236 4 C236.33 4.66 236.66 5.32 237 6 C239.12576782 6.46651207 239.12576782 6.46651207 241.5625 6.625 C242.38878906 6.69976562 243.21507813 6.77453125 244.06640625 6.8515625 C244.70449219 6.90054688 245.34257812 6.94953125 246 7 C246 7.66 246 8.32 246 9 C248.31 9 250.62 9 253 9 C253 9.66 253 10.32 253 11 C254.65 11 256.3 11 258 11 C258 11.99 258 12.98 258 14 C259.65 14 261.3 14 263 14 C263 14.66 263 15.32 263 16 C264.32 16 265.64 16 267 16 C267 16.99 267 17.98 267 19 C267.99 19 268.98 19 270 19 C270 19.66 270 20.32 270 21 C270.66 21 271.32 21 272 21 C272 21.66 272 22.32 272 23 C273.65 23.33 275.3 23.66 277 24 C277 24.66 277 25.32 277 26 C277.66 26 278.32 26 279 26 C280.625 27.375 280.625 27.375 282 29 C282 29.66 282 30.32 282 31 C282.66 31 283.32 31 284 31 C284 31.66 284 32.32 284 33 C284.66 33 285.32 33 286 33 C286 33.66 286 34.32 286 35 C286.99 35 287.98 35 289 35 C289 35.99 289 36.98 289 38 C289.66 38 290.32 38 291 38 C291 38.66 291 39.32 291 40 C291.66 40 292.32 40 293 40 C294.625 41.3125 294.625 41.3125 296 43 C296 43.99 296 44.98 296 46 C296.66 46 297.32 46 298 46 C298 46.99 298 47.98 298 49 C298.66 49 299.32 49 300 49 C302.42099644 51.01749703 303.81699429 53.08798596 305 56 C305 56.99 305 57.98 305 59 C305.99 59 306.98 59 308 59 C308 60.32 308 61.64 308 63 C308.66 63 309.32 63 310 63 C310 64.32 310 65.64 310 67 C310.66 67 311.32 67 312 67 C312.66 68.32 313.32 69.64 314 71 C314.33 71 314.66 71 315 71 C315 72.65 315 74.3 315 76 C315.66 76 316.32 76 317 76 C317 77.98 317 79.96 317 82 C317.66 82 318.32 82 319 82 C319.12375 82.804375 319.2475 83.60875 319.375 84.4375 C319.58125 85.283125 319.7875 86.12875 320 87 C320.66 87.33 321.32 87.66 322 88 C322 90.31 322 92.62 322 95 C322.66 95 323.32 95 324 95 C324.12375 96.134375 324.2475 97.26875 324.375 98.4375 C324.58125 99.613125 324.7875 100.78875 325 102 C325.66 102.33 326.32 102.66 327 103 C327.4140625 105.28515625 327.4140625 105.28515625 327.625 108.0625 C327.73714844 109.44115234 327.73714844 109.44115234 327.8515625 110.84765625 C327.90054688 111.55792969 327.94953125 112.26820313 328 113 C328.33 113 328.66 113 329 113 C329 118.28 329 123.56 329 129 C329.66 129 330.32 129 331 129 C331 138.9 331 148.8 331 159 C330.34 159 329.68 159 329 159 C329 164.28 329 169.56 329 175 C328.67 175 328.34 175 328 175 C327.95101562 175.71027344 327.90203125 176.42054688 327.8515625 177.15234375 C327.77679687 178.07144531 327.70203125 178.99054688 327.625 179.9375 C327.55539062 180.85402344 327.48578125 181.77054688 327.4140625 182.71484375 C327.27742188 183.46894531 327.14078125 184.22304687 327 185 C326.34 185.33 325.68 185.66 325 186 C324.53476937 187.89533342 324.53476937 187.89533342 324.375 190.0625 C324.25125 191.361875 324.1275 192.66125 324 194 C323.34 194 322.68 194 322 194 C322 196.31 322 198.62 322 201 C321.34 201 320.68 201 320 201 C319.67 202.98 319.34 204.96 319 207 C318.34 207 317.68 207 317 207 C317 208.65 317 210.3 317 212 C316.34 212 315.68 212 315 212 C315 213.98 315 215.96 315 218 C314.34 218 313.68 218 313 218 C312.67 219.32 312.34 220.64 312 222 C311.34 222 310.68 222 310 222 C310 223.32 310 224.64 310 226 C309.34 226 308.68 226 308 226 C308 226.99 308 227.98 308 229 C307.34 229.33 306.68 229.66 306 230 C305.67 230.99 305.34 231.98 305 233 C304.34 233 303.68 233 303 233 C303 233.99 303 234.98 303 236 C301.625 237.6875 301.625 237.6875 300 239 C299.34 239 298.68 239 298 239 C298 239.99 298 240.98 298 242 C297.34 242 296.68 242 296 242 C296 242.99 296 243.98 296 245 C294.625 246.6875 294.625 246.6875 293 248 C292.34 248 291.68 248 291 248 C291 248.66 291 249.32 291 250 C290.34 250 289.68 250 289 250 C288.67 250.99 288.34 251.98 288 253 C285.9375 254.1875 285.9375 254.1875 284 255 C284 255.66 284 256.32 284 257 C283.34 257 282.68 257 282 257 C282 257.66 282 258.32 282 259 C279.88007246 261.64990942 278.22839315 262.24670827 275 263 C274.67 263.66 274.34 264.32 274 265 C273.34 265 272.68 265 272 265 C272 265.66 272 266.32 272 267 C270.35 267 268.7 267 267 267 C267 267.66 267 268.32 267 269 C266.34 269 265.68 269 265 269 C264.67 269.99 264.34 270.98 264 272 C262.68 272 261.36 272 260 272 C260 272.66 260 273.32 260 274 C258.35 274.33 256.7 274.66 255 275 C255 275.66 255 276.32 255 277 C252.69 277 250.38 277 248 277 C248 277.66 248 278.32 248 279 C246.68 279 245.36 279 244 279 C244 279.66 244 280.32 244 281 C241.69 281 239.38 281 237 281 C236.67 281.99 236.34 282.98 236 284 C233.69 284 231.38 284 229 284 C229 284.66 229 285.32 229 286 C228.37351562 286.06058594 227.74703125 286.12117188 227.1015625 286.18359375 C225.87566406 286.30927734 225.87566406 286.30927734 224.625 286.4375 C223.81289062 286.51871094 223.00078125 286.59992188 222.1640625 286.68359375 C219.95727195 286.89090114 219.95727195 286.89090114 218 288 C215.9625237 288.22858114 213.91959697 288.41024278 211.875 288.5625 C210.23144531 288.68818359 210.23144531 288.68818359 208.5546875 288.81640625 C207.71164063 288.87699219 206.86859375 288.93757813 206 289 C206 289.66 206 290.32 206 291 C197.42 291 188.84 291 180 291 C180 291.66 180 292.32 180 293 C170.38614362 293.02313874 160.77229678 293.04092293 151.15841866 293.05181217 C146.6946324 293.05703764 142.23086516 293.06412921 137.76708984 293.07543945 C133.46179898 293.08628024 129.15652644 293.09227938 124.85122299 293.09487724 C123.20613186 293.09672933 121.56104177 293.10034584 119.9159584 293.10573006 C117.61728982 293.11295628 115.31869759 293.11399027 113.02001953 293.11352539 C111.7098587 293.115746 110.39969788 293.11796661 109.04983521 293.12025452 C106 293 106 293 104 292 C104 334.57 104 377.14 104 421 C69.68 421 35.36 421 0 421 C0 282.07 0 143.14 0 0 Z M104 85 C104 124.93 104 164.86 104 206 C134.53828173 209.89823197 134.53828173 209.89823197 163 205 C163 204.34 163 203.68 163 203 C166.96 203 170.92 203 175 203 C175 202.34 175 201.68 175 201 C177.31 201 179.62 201 182 201 C182 200.34 182 199.68 182 199 C185.465 198.505 185.465 198.505 189 198 C189 197.34 189 196.68 189 196 C190.65 196 192.3 196 194 196 C194 195.34 194 194.68 194 194 C195.175625 193.7834375 195.175625 193.7834375 196.375 193.5625 C198.96421018 193.12201075 198.96421018 193.12201075 201 192 C201 191.34 201 190.68 201 190 C201.66 190 202.32 190 203 190 C203 189.01 203 188.02 203 187 C203.99 186.67 204.98 186.34 206 186 C206 185.01 206 184.02 206 183 C206.66 183 207.32 183 208 183 C208 182.01 208 181.02 208 180 C208.66 180 209.32 180 210 180 C210.33 178.35 210.66 176.7 211 175 C211.66 175 212.32 175 213 175 C213 173.35 213 171.7 213 170 C213.66 170 214.32 170 215 170 C215.12375 168.88625 215.2475 167.7725 215.375 166.625 C216 163 216 163 218 161 C218.42645229 158.1404923 218.42645229 158.1404923 218.5625 154.9375 C218.90277778 149.09722222 218.90277778 149.09722222 220 148 C220.16666667 144.5 220.16666667 144.5 220 141 C219.67 140.67 219.34 140.34 219 140 C218.71602148 137.19176801 218.55153335 134.38353365 218.37890625 131.56640625 C218.23688035 128.8393833 218.23688035 128.8393833 216 127 C215.59952556 124.67724823 215.2602896 122.34260643 215 120 C214.34 120 213.68 120 213 120 C213.061875 119.278125 213.12375 118.55625 213.1875 117.8125 C212.96160079 114.42401178 211.90014966 112.7771418 210 110 C209.01 108.515 209.01 108.515 208 107 C207.34 107 206.68 107 206 107 C205.9175 106.38125 205.835 105.7625 205.75 105.125 C205.18741541 102.81562433 205.18741541 102.81562433 202.9375 101.75 C202.298125 101.5025 201.65875 101.255 201 101 C201 100.34 201 99.68 201 99 C200.360625 98.87625 199.72125 98.7525 199.0625 98.625 C198.381875 98.41875 197.70125 98.2125 197 98 C196.505 97.01 196.505 97.01 196 96 C195.34 96 194.68 96 194 96 C194 95.34 194 94.68 194 94 C192.35 94 190.7 94 189 94 C189 93.34 189 92.68 189 92 C186.195261 90.76261515 183.79629321 89.96866049 180.75 89.5 C179.8425 89.335 178.935 89.17 178 89 C177.505 88.01 177.505 88.01 177 87 C172.38 87 167.76 87 163 87 C163 86.34 163 85.68 163 85 C143.53 85 124.06 85 104 85 Z " fill="#000000" transform="translate(2315,49)"/>
<path d="M0 0 C33.33 0 66.66 0 101 0 C101.33 49.5 101.66 99 102 150 C103.32 147.03 104.64 144.06 106 141 C106.66 141 107.32 141 108 141 C108.33 139.68 108.66 138.36 109 137 C109.66 137 110.32 137 111 137 C111 135.68 111 134.36 111 133 C111.66 133 112.32 133 113 133 C113 132.01 113 131.02 113 130 C113.99 130 114.98 130 116 130 C116 129.34 116 128.68 116 128 C116.66 128 117.32 128 118 128 C118 127.01 118 126.02 118 125 C118.66 125 119.32 125 120 125 C120 124.34 120 123.68 120 123 C120.99 123 121.98 123 123 123 C123.66 121.35 124.32 119.7 125 118 C125.66 118 126.32 118 127 118 C127 117.34 127 116.68 127 116 C129.33214148 114.79371992 131.49642139 113.8345262 134 113 C134.33 112.34 134.66 111.68 135 111 C136.32 111 137.64 111 139 111 C139 110.34 139 109.68 139 109 C139.99 109 140.98 109 142 109 C142 108.01 142 107.02 142 106 C144.31 106 146.62 106 149 106 C149 105.34 149 104.68 149 104 C150.65 104 152.3 104 154 104 C154 103.01 154 102.02 154 101 C156.64 101 159.28 101 162 101 C162 100.34 162 99.68 162 99 C165.63 99 169.26 99 173 99 C173 98.34 173 97.68 173 97 C178.53588533 96.97535225 184.071739 96.95716504 189.60766602 96.94506836 C191.4924373 96.94002756 193.37720465 96.93319502 195.26196289 96.92456055 C197.96501636 96.91248383 200.66801831 96.90676932 203.37109375 96.90234375 C204.64296791 96.89460182 204.64296791 96.89460182 205.9405365 96.88670349 C207.96071068 96.88650805 209.98077934 96.93793789 212 97 C212.33 97.33 212.66 97.66 213 98 C215.01594582 98.23427778 217.038474 98.41336124 219.0625 98.5625 C220.71958984 98.68818359 220.71958984 98.68818359 222.41015625 98.81640625 C223.26480469 98.87699219 224.11945313 98.93757813 225 99 C225 99.66 225 100.32 225 101 C228.3 101 231.6 101 235 101 C235 101.66 235 102.32 235 103 C237.97 103.495 237.97 103.495 241 104 C241 104.66 241 105.32 241 106 C243.31 106 245.62 106 248 106 C248 106.99 248 107.98 248 109 C249.65 109 251.3 109 253 109 C253 109.66 253 110.32 253 111 C253.66 111 254.32 111 255 111 C255 111.66 255 112.32 255 113 C256.65 113 258.3 113 260 113 C260 113.99 260 114.98 260 116 C260.99 116 261.98 116 263 116 C263 116.66 263 117.32 263 118 C264.32 118 265.64 118 267 118 C267 118.99 267 119.98 267 121 C267.99 121 268.98 121 270 121 C270 121.66 270 122.32 270 123 C270.66 123 271.32 123 272 123 C272 123.66 272 124.32 272 125 C272.66 125 273.32 125 274 125 C275.625 126.375 275.625 126.375 277 128 C277 128.66 277 129.32 277 130 C277.66 130 278.32 130 279 130 C279 130.99 279 131.98 279 133 C279.66 133 280.32 133 281 133 C283.1385485 135.1385485 283.42655063 136.13275314 284 139 C284.66 139 285.32 139 286 139 C286 139.99 286 140.98 286 142 C286.66 142 287.32 142 288 142 C288.33 143.32 288.66 144.64 289 146 C289.66 146 290.32 146 291 146 C292.76462683 149.08809695 293 150.23312136 293 154 C293.99 154 294.98 154 296 154 C296 155.65 296 157.3 296 159 C296.66 159 297.32 159 298 159 C298 160.65 298 162.3 298 164 C298.66 164 299.32 164 300 164 C300.12375 164.804375 300.2475 165.60875 300.375 166.4375 C300.684375 167.7059375 300.684375 167.7059375 301 169 C301.66 169.33 302.32 169.66 303 170 C303 172.97 303 175.94 303 179 C303.66 179 304.32 179 305 179 C305.06058594 179.78246094 305.12117188 180.56492188 305.18359375 181.37109375 C305.26738281 182.38300781 305.35117188 183.39492187 305.4375 184.4375 C305.51871094 185.44683594 305.59992188 186.45617187 305.68359375 187.49609375 C305.73211468 189.93640779 305.73211468 189.93640779 307 191 C307.09798302 193.95828968 307.12991615 196.89324112 307.12025452 199.85194397 C307.12110894 200.79201544 307.12196337 201.73208691 307.12284368 202.70064539 C307.12450136 205.87605137 307.11897243 209.05140546 307.11352539 212.22680664 C307.11324355 214.49293517 307.11340118 216.75906379 307.1139679 219.02519226 C307.11425601 225.19849782 307.10835703 231.37178413 307.10139394 237.54508519 C307.09516272 243.98866889 307.09455679 250.43225298 307.09336853 256.87583923 C307.09060882 267.69791031 307.08435327 278.51997345 307.07543945 289.34204102 C307.06626607 300.49080368 307.05919634 311.63956441 307.05493164 322.78833008 C307.05466364 323.48208778 307.05439565 324.17584547 307.05411953 324.89062613 C307.05180681 330.92493924 307.04965395 336.95925239 307.04751682 342.99356556 C307.03810037 368.99571705 307.01818191 394.99784975 307 421 C271.36 421 235.72 421 199 421 C198.95101563 406.80226563 198.90203125 392.60453125 198.8515625 377.9765625 C198.81619722 369.00780624 198.78033133 360.03905666 198.7421875 351.0703125 C198.68167383 336.8196766 198.62326492 322.56905337 198.578125 308.31835938 C198.54524605 297.94142477 198.50543774 287.56454421 198.45720994 277.18766916 C198.43190409 271.69013399 198.41013499 266.19263486 198.39665604 260.69505692 C198.38387263 255.52574084 198.36185887 250.35654811 198.33261681 245.18729973 C198.32351179 243.28533571 198.31784404 241.38335181 198.31578636 239.48136711 C198.31248436 236.89389983 198.2970636 234.30678666 198.2784729 231.71939087 C198.281375 230.57835417 198.281375 230.57835417 198.28433573 229.41426623 C198.37364567 225.25120678 198.37364567 225.25120678 196 222 C195.8046875 219.8359375 195.8046875 219.8359375 195.875 217.375 C195.89304687 216.55773437 195.91109375 215.74046875 195.9296875 214.8984375 C195.95289063 214.27195312 195.97609375 213.64546875 196 213 C195.34 213 194.68 213 194 213 C192.58622659 210.36095629 191.62759865 207.92879371 191 205 C190.34 205 189.68 205 189 205 C189 203.68 189 202.36 189 201 C188.34 201 187.68 201 187 201 C185.375 199.625 185.375 199.625 184 198 C184 197.34 184 196.68 184 196 C183.34 196 182.68 196 182 196 C182 195.34 182 194.68 182 194 C180.35 194 178.7 194 177 194 C177 193.34 177 192.68 177 192 C174.69 191.67 172.38 191.34 170 191 C170 190.34 170 189.68 170 189 C167.03 189 164.06 189 161 189 C161 188.34 161 187.68 161 187 C157.04 187 153.08 187 149 187 C149 187.66 149 188.32 149 189 C145.04 189 141.08 189 137 189 C137 189.66 137 190.32 137 191 C135.35 191 133.7 191 132 191 C132 191.99 132 192.98 132 194 C130.35 194 128.7 194 127 194 C127 194.66 127 195.32 127 196 C126.34 196 125.68 196 125 196 C125 196.66 125 197.32 125 198 C124.34 198 123.68 198 123 198 C123 198.66 123 199.32 123 200 C121.35 200.66 119.7 201.32 118 202 C118 202.99 118 203.98 118 205 C117.34 205 116.68 205 116 205 C116 205.99 116 206.98 116 208 C115.01 208 114.02 208 113 208 C113 209.32 113 210.64 113 212 C112.34 212 111.68 212 111 212 C111.04125 212.94875 111.0825 213.8975 111.125 214.875 C111 218 111 218 109 220 C108.57557555 222.39993356 108.57557555 222.39993356 108.4375 225.0625 C108.09722222 229.90277778 108.09722222 229.90277778 107 231 C106.88991905 233.45330815 106.84504165 235.87907394 106.84178162 238.33338928 C106.83437465 239.49848334 106.83437465 239.49848334 106.82681805 240.68711466 C106.81136645 243.30971804 106.80306183 245.93229681 106.79467773 248.55493164 C106.78510522 250.42697875 106.77509552 252.29902368 106.76467896 254.17106628 C106.73755589 259.27000405 106.71658653 264.36895114 106.69667697 269.4679215 C106.67486291 274.79043496 106.64745189 280.11291944 106.62062073 285.43540955 C106.57063171 295.5218279 106.525716 305.60826229 106.48259836 315.6947121 C106.42406522 329.31922069 106.35774514 342.94369119 106.29184818 356.56816578 C106.18817641 378.04541822 106.09495183 399.52270314 106 421 C71.02 421 36.04 421 0 421 C0 282.07 0 143.14 0 0 Z " fill="#000000" transform="translate(1607,49)"/>
<path d="M0 0 C5.96313166 -0.02464574 11.92623395 -0.042834 17.8894043 -0.05493164 C19.91968298 -0.05997278 21.94995802 -0.06680557 23.98022461 -0.07543945 C26.89177347 -0.08751467 29.8032745 -0.09323034 32.71484375 -0.09765625 C34.08514992 -0.10539818 34.08514992 -0.10539818 35.48313904 -0.11329651 C37.65575427 -0.11349168 39.82827296 -0.06211805 42 0 C42.33 0.33 42.66 0.66 43 1 C44.84891946 1.23363881 46.70488031 1.41303635 48.5625 1.5625 C49.57441406 1.64628906 50.58632812 1.73007813 51.62890625 1.81640625 C52.41136719 1.87699219 53.19382812 1.93757812 54 2 C54 2.66 54 3.32 54 4 C56.64 4 59.28 4 62 4 C62 4.66 62 5.32 62 6 C64.31 6.33 66.62 6.66 69 7 C69 7.66 69 8.32 69 9 C71.31 9 73.62 9 76 9 C76 9.99 76 10.98 76 12 C77.175625 12.2165625 77.175625 12.2165625 78.375 12.4375 C81 13 81 13 83 14 C83 14.66 83 15.32 83 16 C84.65 16.33 86.3 16.66 88 17 C88 17.66 88 18.32 88 19 C90.31 19.66 92.62 20.32 95 21 C95 21.99 95 22.98 95 24 C95.66 24 96.32 24 97 24 C97 24.66 97 25.32 97 26 C97.66 26 98.32 26 99 26 C101 28 101 28 102 31 C102.66 31 103.32 31 104 31 C107.76882051 34.28563839 109.98449384 37.43859132 112 42 C112.66 42 113.32 42 114 42 C114 43.32 114 44.64 114 46 C114.66 46 115.32 46 116 46 C116 47.32 116 48.64 116 50 C116.66 50 117.32 50 118 50 C118.33 51.32 118.66 52.64 119 54 C119.66 54 120.32 54 121 54 C121 55.32 121 56.64 121 58 C121.66 58 122.32 58 123 58 C123.12375 58.639375 123.2475 59.27875 123.375 59.9375 C123.58125 60.618125 123.7875 61.29875 124 62 C124.66 62.33 125.32 62.66 126 63 C126 64.98 126 66.96 126 69 C126.66 69 127.32 69 128 69 C128.19335938 69.99902344 128.38671875 70.99804688 128.5859375 72.02734375 C128.97652344 73.96287109 128.97652344 73.96287109 129.375 75.9375 C129.75785156 77.86916016 129.75785156 77.86916016 130.1484375 79.83984375 C130.56996094 81.40412109 130.56996094 81.40412109 131 83 C131.66 83.33 132.32 83.66 133 84 C133 87.96 133 91.92 133 96 C133.66 96 134.32 96 135 96 C135 171.24 135 246.48 135 324 C99.03 324 63.06 324 26 324 C25.95101562 310.00464844 25.90203125 296.00929688 25.8515625 281.58984375 C25.8161862 272.73501978 25.78031302 263.88020247 25.7421875 255.02539062 C25.68173702 240.96396383 25.62334239 226.90254959 25.578125 212.84106445 C25.54518578 202.60068693 25.50534378 192.36036352 25.45720994 182.12004572 C25.43196425 176.69780465 25.41017718 171.27559939 25.39665604 165.85331535 C25.38381829 160.74882509 25.36174519 155.64445775 25.33261681 150.54003525 C25.32355447 148.66758491 25.31785393 146.79511479 25.31578636 144.92264366 C25.31245435 142.36320187 25.29695151 139.80410662 25.2784729 137.24473572 C25.281375 136.13721818 25.281375 136.13721818 25.28433573 135.00732654 C25.23346042 130.28336001 24.46231009 126.44187159 23 122 C22.34 122 21.68 122 21 122 C21 120.02 21 118.04 21 116 C20.34 116 19.68 116 19 116 C18.80664062 115.36191406 18.61328125 114.72382813 18.4140625 114.06640625 C18.15367187 113.24011719 17.89328125 112.41382813 17.625 111.5625 C17.36976563 110.73878906 17.11453125 109.91507812 16.8515625 109.06640625 C16.19117773 106.82201984 16.19117773 106.82201984 14 106 C14 104.35 14 102.7 14 101 C13.34 101 12.68 101 12 101 C12 100.34 12 99.68 12 99 C10.35 99 8.7 99 7 99 C7 98.34 7 97.68 7 97 C6.443125 96.87625 5.88625 96.7525 5.3125 96.625 C2.77885636 95.94023145 0.42078968 95.00866237 -2 94 C-2 93.34 -2 92.68 -2 92 C-5.96 92 -9.92 92 -14 92 C-14 91.34 -14 90.68 -14 90 C-17.96 90 -21.92 90 -26 90 C-26 90.66 -26 91.32 -26 92 C-28.05078125 92.22786458 -30.1015625 92.45572917 -32.15234375 92.68359375 C-34.01140229 92.81886614 -34.01140229 92.81886614 -35 94 C-36.66617115 94.04063832 -38.33388095 94.042721 -40 94 C-40 94.99 -40 95.98 -40 97 C-41.65 97 -43.3 97 -45 97 C-45 97.66 -45 98.32 -45 99 C-48.465 99.99 -48.465 99.99 -52 101 C-52 101.99 -52 102.98 -52 104 C-52.66 104 -53.32 104 -54 104 C-54 104.66 -54 105.32 -54 106 C-54.99 106.495 -54.99 106.495 -56 107 C-56.495 108.485 -56.495 108.485 -57 110 C-57.66 110 -58.32 110 -59 110 C-59 111.98 -59 113.96 -59 116 C-59.99 116.495 -59.99 116.495 -61 117 C-61.65772428 120.02934491 -61.65772428 120.02934491 -62 123 C-62.66 123 -63.32 123 -64 123 C-64 126.63 -64 130.26 -64 134 C-64.66 134 -65.32 134 -66 134 C-66 196.7 -66 259.4 -66 324 C-101.31 324 -136.62 324 -173 324 C-173 219.39 -173 114.78 -173 7 C-139.34 7 -105.68 7 -71 7 C-70.67 20.86 -70.34 34.72 -70 49 C-69.67 47.35 -69.34 45.7 -69 44 C-68.34 44 -67.68 44 -67 44 C-66.67 43.01 -66.34 42.02 -66 41 C-65.34 41 -64.68 41 -64 41 C-64 40.01 -64 39.02 -64 38 C-63.34 38 -62.68 38 -62 38 C-62 37.01 -62 36.02 -62 35 C-61.01 35 -60.02 35 -59 35 C-59 33.68 -59 32.36 -59 31 C-58.34 31 -57.68 31 -57 31 C-57 30.34 -57 29.68 -57 29 C-55.5390625 27.4921875 -55.5390625 27.4921875 -53.625 25.875 C-52.99851562 25.33617187 -52.37203125 24.79734375 -51.7265625 24.2421875 C-50 23 -50 23 -48 23 C-48 22.34 -48 21.68 -48 21 C-47.01 21 -46.02 21 -45 21 C-45 20.34 -45 19.68 -45 19 C-44.34 19 -43.68 19 -43 19 C-43 18.34 -43 17.68 -43 17 C-41.35 16.67 -39.7 16.34 -38 16 C-38 15.34 -38 14.68 -38 14 C-36.35 14 -34.7 14 -33 14 C-33 13.34 -33 12.68 -33 12 C-31.35 11.67 -29.7 11.34 -28 11 C-28 10.34 -28 9.68 -28 9 C-26.68 9 -25.36 9 -24 9 C-24 8.34 -24 7.68 -24 7 C-20.535 6.505 -20.535 6.505 -17 6 C-17 5.34 -17 4.68 -17 4 C-14.69 4 -12.38 4 -10 4 C-10 3.34 -10 2.68 -10 2 C-6.7 2 -3.4 2 0 2 C0 1.34 0 0.68 0 0 Z " fill="#000000" transform="translate(3371,146)"/>
<path d="M0 0 C5.28 0 10.56 0 16 0 C16 0.99 16 1.98 16 3 C23.92 3 31.84 3 40 3 C40 3.66 40 4.32 40 5 C41.17369141 4.98259766 41.17369141 4.98259766 42.37109375 4.96484375 C43.38300781 4.95582031 44.39492187 4.94679687 45.4375 4.9375 C46.44683594 4.92589844 47.45617188 4.91429687 48.49609375 4.90234375 C51 5 51 5 52 6 C53.51469448 6.23192865 55.03754562 6.41215238 56.5625 6.5625 C57.38878906 6.64628906 58.21507813 6.73007813 59.06640625 6.81640625 C59.70449219 6.87699219 60.34257812 6.93757812 61 7 C61 7.99 61 8.98 61 10 C63.31 10 65.62 10 68 10 C68 10.66 68 11.32 68 12 C70.31 12 72.62 12 75 12 C75 12.66 75 13.32 75 14 C75.680625 14.12375 76.36125 14.2475 77.0625 14.375 C80.4277412 15.09100877 83.70013425 16.02945125 87 17 C87 17.66 87 18.32 87 19 C88.65 19 90.3 19 92 19 C92 19.99 92 20.98 92 22 C93.65 22 95.3 22 97 22 C97 22.66 97 23.32 97 24 C98.32 24 99.64 24 101 24 C103 26 103 26 104 28 C106.02463255 28.65213292 106.02463255 28.65213292 108 29 C108 29.66 108 30.32 108 31 C108.99 31 109.98 31 111 31 C111 31.66 111 32.32 111 33 C112.65 33.33 114.3 33.66 116 34 C116 34.66 116 35.32 116 36 C116.66 36 117.32 36 118 36 C118 36.66 118 37.32 118 38 C118.66 38 119.32 38 120 38 C121.625 39.375 121.625 39.375 123 41 C123 41.66 123 42.32 123 43 C123.66 43 124.32 43 125 43 C125.66 44.65 126.32 46.3 127 48 C127.99 48 128.98 48 130 48 C130 48.99 130 49.98 130 51 C130.66 51 131.32 51 132 51 C132.33 51.99 132.66 52.98 133 54 C133.66 54.33 134.32 54.66 135 55 C135 55.66 135 56.32 135 57 C135.66 57 136.32 57 137 57 C137 57.99 137 58.98 137 60 C137.66 60 138.32 60 139 60 C139 61.32 139 62.64 139 64 C139.99 64 140.98 64 142 64 C142 65.32 142 66.64 142 68 C142.66 68 143.32 68 144 68 C144 69.32 144 70.64 144 72 C144.66 72 145.32 72 146 72 C146.66 73.32 147.32 74.64 148 76 C148.33 76 148.66 76 149 76 C149 77.65 149 79.3 149 81 C149.66 81 150.32 81 151 81 C151 82.65 151 84.3 151 86 C151.66 86 152.32 86 153 86 C153.66 87.65 154.32 89.3 155 91 C155.33 91 155.66 91 156 91 C156 93.31 156 95.62 156 98 C156.66 98 157.32 98 158 98 C158 100.31 158 102.62 158 105 C158.99 105 159.98 105 161 105 C161 107.64 161 110.28 161 113 C161.66 113 162.32 113 163 113 C163 116.3 163 119.6 163 123 C163.66 123 164.32 123 165 123 C165 147.42 165 171.84 165 197 C138.43624413 197.0225487 111.87249598 197.04098016 85.30873299 197.05181217 C72.97551252 197.0569747 60.64229842 197.06401659 48.30908203 197.07543945 C37.56302126 197.08538759 26.81696509 197.09185374 16.07089984 197.09408849 C10.3777369 197.09539538 4.68458711 197.09847984 -1.00857162 197.10573006 C-6.36168274 197.11249231 -11.71477519 197.11461654 -17.06789017 197.11310768 C-19.03759614 197.11338392 -21.00730271 197.11538782 -22.977005 197.11920547 C-25.65631399 197.1241459 -28.33555159 197.12299697 -31.01486206 197.12025452 C-31.80278983 197.12316736 -32.5907176 197.1260802 -33.40252197 197.12908131 C-38.77175758 197.11412121 -38.77175758 197.11412121 -41 196 C-40.67 198.64 -40.34 201.28 -40 204 C-39.34 204 -38.68 204 -38 204 C-38 207.3 -38 210.6 -38 214 C-37.34 214 -36.68 214 -36 214 C-34.80712589 217.87684087 -34 220.91621923 -34 225 C-33.01 225 -32.02 225 -31 225 C-31 226.32 -31 227.64 -31 229 C-30.34 229 -29.68 229 -29 229 C-29 229.99 -29 230.98 -29 232 C-28.34 232 -27.68 232 -27 232 C-22 237.47619048 -22 237.47619048 -22 240 C-21.01 240 -20.02 240 -19 240 C-18.773125 240.639375 -18.54625 241.27875 -18.3125 241.9375 C-17.14749104 244.27193661 -17.14749104 244.27193661 -14.375 244.75 C-13.59125 244.8325 -12.8075 244.915 -12 245 C-12 245.66 -12 246.32 -12 247 C-7.68803391 247.94324258 -3.37934119 248.48041715 1 249 C1 249.33 1 249.66 1 250 C17.83 250.495 17.83 250.495 35 251 C35 250.34 35 249.68 35 249 C37.31 249 39.62 249 42 249 C42 248.34 42 247.68 42 247 C42.8971875 246.8453125 42.8971875 246.8453125 43.8125 246.6875 C46.06591338 246.1720991 46.06591338 246.1720991 47.4375 244.5 C49.48513623 242.53426922 51.23747349 242.37331439 54 242 C54 241.34 54 240.68 54 240 C54.66 240 55.32 240 56 240 C56 239.34 56 238.68 56 238 C57.375 236.375 57.375 236.375 59 235 C59.66 235 60.32 235 61 235 C61 234.01 61 233.02 61 232 C61.66 232 62.32 232 63 232 C64.87670966 228.39094297 66.38317805 224.77258454 68 221 C74.27 221 80.54 221 87 221 C87 221.66 87 222.32 87 223 C113.4 223 139.8 223 167 223 C167.33 224.32 167.66 225.64 168 227 C167.34 227.33 166.68 227.66 166 228 C165.53348793 230.12576782 165.53348793 230.12576782 165.375 232.5625 C165.30023437 233.38878906 165.22546875 234.21507812 165.1484375 235.06640625 C165.09945312 235.70449219 165.05046875 236.34257812 165 237 C164.34 237 163.68 237 163 237 C163 240.3 163 243.6 163 247 C162.34 247 161.68 247 161 247 C161 249.31 161 251.62 161 254 C160.34 254.33 159.68 254.66 159 255 C158.34444881 257.52733235 158.34444881 257.52733235 158 260 C157.34 260 156.68 260 156 260 C156.0825 260.7425 156.165 261.485 156.25 262.25 C155.92596268 265.81441057 154.5865287 266.64861027 152 269 C151.67 269.99 151.34 270.98 151 272 C150.34 272 149.68 272 149 272 C148.87625 272.598125 148.7525 273.19625 148.625 273.8125 C148 276 148 276 146 279 C145.34 279 144.68 279 144 279 C144 279.99 144 280.98 144 282 C143.34 282 142.68 282 142 282 C142 283.32 142 284.64 142 286 C140.625 287.75 140.625 287.75 139 289 C138.34 289 137.68 289 137 289 C137 289.66 137 290.32 137 291 C136.34 291 135.68 291 135 291 C135 291.99 135 292.98 135 294 C134.01 294 133.02 294 132 294 C132 294.66 132 295.32 132 296 C131.34 296 130.68 296 130 296 C130 296.66 130 297.32 130 298 C128.625 299.625 128.625 299.625 127 301 C126.34 301 125.68 301 125 301 C125 301.66 125 302.32 125 303 C123.68 303.33 122.36 303.66 121 304 C121 304.66 121 305.32 121 306 C120.01 306 119.02 306 118 306 C118 306.66 118 307.32 118 308 C115.69 308.66 113.38 309.32 111 310 C111 310.99 111 311.98 111 313 C109.35 313 107.7 313 106 313 C106 313.66 106 314.32 106 315 C104.35 315 102.7 315 101 315 C101 315.99 101 316.98 101 318 C100.01 318 99.02 318 98 318 C97.67 318.66 97.34 319.32 97 320 C94.69 320 92.38 320 90 320 C90 320.66 90 321.32 90 322 C88.02 322.66 86.04 323.32 84 324 C84 324.33 84 324.66 84 325 C81.36 325 78.72 325 76 325 C76 325.66 76 326.32 76 327 C73.36 327 70.72 327 68 327 C68 327.66 68 328.32 68 329 C65.03 329 62.06 329 59 329 C58.67 329.99 58.34 330.98 58 332 C45.87372383 332.97134116 33.80711657 333.15551086 21.64624023 333.13037109 C18.57075052 333.12501437 15.49540717 333.13034773 12.41992188 333.13671875 C0.90960534 333.14018498 -10.52027738 332.85135539 -22 332 C-22 331.34 -22 330.68 -22 330 C-25.96 329.67 -29.92 329.34 -34 329 C-34 328.34 -34 327.68 -34 327 C-36.97 327 -39.94 327 -43 327 C-43 326.34 -43 325.68 -43 325 C-45.31 325 -47.62 325 -50 325 C-50.33 324.34 -50.66 323.68 -51 323 C-54.02934491 322.34227572 -54.02934491 322.34227572 -57 322 C-57 321.34 -57 320.68 -57 320 C-58.65 320 -60.3 320 -62 320 C-62 319.34 -62 318.68 -62 318 C-63.65 317.67 -65.3 317.34 -67 317 C-67 316.34 -67 315.68 -67 315 C-68.32 315 -69.64 315 -71 315 C-71 314.34 -71 313.68 -71 313 C-72.175625 313.061875 -72.175625 313.061875 -73.375 313.125 C-76 313 -76 313 -78 311 C-78.99 310.67 -79.98 310.34 -81 310 C-81 309.34 -81 308.68 -81 308 C-81.66 308 -82.32 308 -83 308 C-83 307.34 -83 306.68 -83 306 C-84.65 306 -86.3 306 -88 306 C-88 305.01 -88 304.02 -88 303 C-88.66 303 -89.32 303 -90 303 C-90 302.34 -90 301.68 -90 301 C-90.99 301 -91.98 301 -93 301 C-93 300.34 -93 299.68 -93 299 C-94.65 298.67 -96.3 298.34 -98 298 C-98 297.34 -98 296.68 -98 296 C-98.66 296 -99.32 296 -100 296 C-100.66 294.35 -101.32 292.7 -102 291 C-102.99 291 -103.98 291 -105 291 C-105 290.34 -105 289.68 -105 289 C-105.66 289 -106.32 289 -107 289 C-107 288.01 -107 287.02 -107 286 C-107.66 286 -108.32 286 -109 286 C-111.1385485 283.8614515 -111.42655063 282.86724686 -112 280 C-112.66 280 -113.32 280 -114 280 C-114 279.01 -114 278.02 -114 277 C-114.66 277 -115.32 277 -116 277 C-117.625 275.75 -117.625 275.75 -119 274 C-119 272.68 -119 271.36 -119 270 C-119.66 270 -120.32 270 -121 270 C-121 269.01 -121 268.02 -121 267 C-121.99 267 -122.98 267 -124 267 C-124 265.68 -124 264.36 -124 263 C-124.66 263 -125.32 263 -126 263 C-127.49821059 259.62902617 -128 257.79557881 -128 254 C-128.99 254 -129.98 254 -131 254 C-131 252.35 -131 250.7 -131 249 C-131.66 249 -132.32 249 -133 249 C-133.29003906 247.93458984 -133.29003906 247.93458984 -133.5859375 246.84765625 C-133.84632812 245.92855469 -134.10671875 245.00945312 -134.375 244.0625 C-134.63023438 243.14597656 -134.88546875 242.22945312 -135.1484375 241.28515625 C-135.76660104 238.83254913 -135.76660104 238.83254913 -138 238 C-138 235.36 -138 232.72 -138 230 C-138.66 230 -139.32 230 -140 230 C-140.12375 228.865625 -140.2475 227.73125 -140.375 226.5625 C-140.58125 225.386875 -140.7875 224.21125 -141 223 C-141.66 222.67 -142.32 222.34 -143 222 C-143 218.7 -143 215.4 -143 212 C-143.66 212 -144.32 212 -145 212 C-145.06058594 211.00097656 -145.12117188 210.00195312 -145.18359375 208.97265625 C-145.26738281 207.68230469 -145.35117188 206.39195312 -145.4375 205.0625 C-145.51871094 203.77472656 -145.59992188 202.48695313 -145.68359375 201.16015625 C-145.64919188 198.13976043 -145.64919188 198.13976043 -147 197 C-147.0987517 195.31744765 -147.12798904 193.63075972 -147.12939453 191.9453125 C-147.13254669 190.86749512 -147.13569885 189.78967773 -147.13894653 188.67919922 C-147.1369223 187.50631348 -147.13489807 186.33342773 -147.1328125 185.125 C-147.13376923 183.9302002 -147.13472595 182.73540039 -147.13571167 181.50439453 C-147.13639371 178.9723302 -147.13453778 176.44026412 -147.13037109 173.90820312 C-147.12502321 170.0168874 -147.13031533 166.12568711 -147.13671875 162.234375 C-147.13605797 159.78124974 -147.13477682 157.32812456 -147.1328125 154.875 C-147.13483673 153.70211426 -147.13686096 152.52922852 -147.13894653 151.32080078 C-147.13579437 150.2429834 -147.13264221 149.16516602 -147.12939453 148.0546875 C-147.12859894 147.10062012 -147.12780334 146.14655273 -147.12698364 145.16357422 C-147 143 -147 143 -146 142 C-145.76346477 139.47403741 -145.57826308 136.96892793 -145.4375 134.4375 C-145.39431641 133.72658203 -145.35113281 133.01566406 -145.30664062 132.28320312 C-145.20028223 130.52238088 -145.09961154 128.7612168 -145 127 C-144.34 127 -143.68 127 -143 127 C-143 123.37 -143 119.74 -143 116 C-142.34 116 -141.68 116 -141 116 C-140.67 113.36 -140.34 110.72 -140 108 C-139.34 108 -138.68 108 -138 108 C-138 105.69 -138 103.38 -138 101 C-137.01 100.505 -137.01 100.505 -136 100 C-135.08719862 97.42562419 -135.08719862 97.42562419 -134.375 94.4375 C-134.11460938 93.42558594 -133.85421875 92.41367188 -133.5859375 91.37109375 C-133.39257812 90.58863281 -133.19921875 89.80617188 -133 89 C-132.34 89 -131.68 89 -131 89 C-131 87.35 -131 85.7 -131 84 C-130.01 84 -129.02 84 -128 84 C-127.896875 83.34 -127.79375 82.68 -127.6875 82 C-126.80786436 78.16158991 -125.43030104 74.66903309 -124 71 C-123.01 71 -122.02 71 -121 71 C-120.855625 70.401875 -120.71125 69.80375 -120.5625 69.1875 C-120.1127561 67.43849596 -119.57107659 65.71322977 -119 64 C-118.34 64 -117.68 64 -117 64 C-116.690625 63.38125 -116.38125 62.7625 -116.0625 62.125 C-115.375 60.75 -114.6875 59.375 -114 58 C-113.34 58 -112.68 58 -112 58 C-112 57.01 -112 56.02 -112 55 C-111.01 55 -110.02 55 -109 55 C-109 54.34 -109 53.68 -109 53 C-108.34 53 -107.68 53 -107 53 C-107 52.34 -107 51.68 -107 51 C-106.34 51 -105.68 51 -105 51 C-105 50.01 -105 49.02 -105 48 C-104.01 48 -103.02 48 -102 48 C-101.34 46.35 -100.68 44.7 -100 43 C-99.34 43 -98.68 43 -98 43 C-98 42.34 -98 41.68 -98 41 C-97.01 41 -96.02 41 -95 41 C-95 40.01 -95 39.02 -95 38 C-94.34 38 -93.68 38 -93 38 C-93 37.34 -93 36.68 -93 36 C-92.01 36 -91.02 36 -90 36 C-90 35.34 -90 34.68 -90 34 C-89.34 34 -88.68 34 -88 34 C-87.773125 33.360625 -87.54625 32.72125 -87.3125 32.0625 C-86 30 -86 30 -83.375 29.25 C-82.59125 29.1675 -81.8075 29.085 -81 29 C-81 28.34 -81 27.68 -81 27 C-80.34 27 -79.68 27 -79 27 C-79 26.01 -79 25.02 -79 24 C-77.35 24 -75.7 24 -74 24 C-74 23.34 -74 22.68 -74 22 C-71.38058783 20.25372522 -69.96175123 19.61277612 -67 19 C-67 18.34 -67 17.68 -67 17 C-65.35 17 -63.7 17 -62 17 C-62 16.34 -62 15.68 -62 15 C-58.535 14.505 -58.535 14.505 -55 14 C-55 13.34 -55 12.68 -55 12 C-53.35 12 -51.7 12 -50 12 C-50 11.34 -50 10.68 -50 10 C-47.69 10 -45.38 10 -43 10 C-43 9.01 -43 8.02 -43 7 C-42.04287109 6.90912109 -42.04287109 6.90912109 -41.06640625 6.81640625 C-40.24011719 6.73261719 -39.41382812 6.64882812 -38.5625 6.5625 C-37.73878906 6.48128906 -36.91507813 6.40007812 -36.06640625 6.31640625 C-34.01337975 6.21069185 -34.01337975 6.21069185 -33 5 C-30.68182911 4.67902249 -28.36220643 4.48779044 -26.03125 4.28125 C-24.00819407 4.20934163 -24.00819407 4.20934163 -23 3 C-21.29227642 2.91286169 -19.58101351 2.89299993 -17.87109375 2.90234375 C-16.31938477 2.90717773 -16.31938477 2.90717773 -14.73632812 2.91210938 C-13.64771484 2.92048828 -12.55910156 2.92886719 -11.4375 2.9375 C-9.7987793 2.94426758 -9.7987793 2.94426758 -8.12695312 2.95117188 C-5.41791505 2.96300174 -2.70898401 2.97948457 0 3 C0 2.01 0 1.02 0 0 Z M6 82 C3.68047431 82.28101946 1.36114486 82.44782625 -0.96875 82.62109375 C-1.97421875 82.80865234 -1.97421875 82.80865234 -3 83 C-3.33 83.66 -3.66 84.32 -4 85 C-7.0625 85.625 -7.0625 85.625 -10 86 C-10 86.66 -10 87.32 -10 88 C-11.65 88 -13.3 88 -15 88 C-15 88.66 -15 89.32 -15 90 C-15.66 90 -16.32 90 -17 90 C-17 90.66 -17 91.32 -17 92 C-18.65 92.33 -20.3 92.66 -22 93 C-22 93.66 -22 94.32 -22 95 C-22.66 95 -23.32 95 -24 95 C-24 95.66 -24 96.32 -24 97 C-24.99 97 -25.98 97 -27 97 C-27 97.66 -27 98.32 -27 99 C-27.66 99 -28.32 99 -29 99 C-29 99.99 -29 100.98 -29 102 C-29.66 102 -30.32 102 -31 102 C-31 102.99 -31 103.98 -31 105 C-31.99 105.33 -32.98 105.66 -34 106 C-34 106.99 -34 107.98 -34 109 C-34.66 109 -35.32 109 -36 109 C-36.19335938 109.63808594 -36.38671875 110.27617187 -36.5859375 110.93359375 C-36.84632813 111.75988281 -37.10671875 112.58617187 -37.375 113.4375 C-37.63023437 114.26121094 -37.88546875 115.08492187 -38.1484375 115.93359375 C-39 118 -39 118 -41 119 C-41 122.96 -41 126.92 -41 131 C-5.69 131 29.62 131 66 131 C66 121.19983099 65.26452512 115.28801186 61 107 C60.34 107 59.68 107 59 107 C58.505 105.02 58.505 105.02 58 103 C57.34 103 56.68 103 56 103 C56 102.01 56 101.02 56 100 C55.34 100 54.68 100 54 100 C54 99.01 54 98.02 54 97 C53.34 97 52.68 97 52 97 C52 96.34 52 95.68 52 95 C51.01 95 50.02 95 49 95 C49 94.34 49 93.68 49 93 C48.01 92.67 47.02 92.34 46 92 C45.505 91.01 45.505 91.01 45 90 C44.01 90 43.02 90 42 90 C42 89.34 42 88.68 42 88 C39.69 88 37.38 88 35 88 C35 87.01 35 86.02 35 85 C33.68 85 32.36 85 31 85 C30.505 84.01 30.505 84.01 30 83 C26.37 83 22.74 83 19 83 C19 82.34 19 81.68 19 81 C17.02090602 80.97313447 15.04171029 80.95366625 13.0625 80.9375 C11.40927734 80.92009766 11.40927734 80.92009766 9.72265625 80.90234375 C7.08552366 80.68737429 7.08552366 80.68737429 6 82 Z " fill="#000000" transform="translate(2102,143)"/>
<path d="M0 0 C4.80548597 -0.04936883 9.61082494 -0.08570443 14.41650391 -0.10986328 C16.05194672 -0.11993254 17.68737149 -0.13358881 19.32275391 -0.15087891 C21.6709437 -0.17508705 24.01889588 -0.18647357 26.3671875 -0.1953125 C27.10057343 -0.20563507 27.83395935 -0.21595764 28.58956909 -0.22659302 C30.39462697 -0.22699368 32.1990783 -0.12212755 34 0 C34.99 0.99 34.99 0.99 36 2 C38.73434962 2.3063859 41.38279821 2.5113336 44.125 2.625 C44.87910156 2.66367188 45.63320312 2.70234375 46.41015625 2.7421875 C48.27303184 2.83651031 50.13648255 2.91934662 52 3 C52 3.66 52 4.32 52 5 C55.96 5 59.92 5 64 5 C64 5.66 64 6.32 64 7 C66.97 7 69.94 7 73 7 C73 7.99 73 8.98 73 10 C74.546875 9.938125 74.546875 9.938125 76.125 9.875 C79.86829627 9.99575149 82.53734547 10.64872018 86 12 C86 12.66 86 13.32 86 14 C87.98 14.33 89.96 14.66 92 15 C92 15.66 92 16.32 92 17 C93.65 17 95.3 17 97 17 C97 17.66 97 18.32 97 19 C98.65 19 100.3 19 102 19 C102 19.99 102 20.98 102 22 C103.65 22 105.3 22 107 22 C107 22.66 107 23.32 107 24 C107.66 24 108.32 24 109 24 C109 24.66 109 25.32 109 26 C110.65 26.33 112.3 26.66 114 27 C114 27.66 114 28.32 114 29 C114.66 29 115.32 29 116 29 C116 29.66 116 30.32 116 31 C117.65 31.33 119.3 31.66 121 32 C121 32.66 121 33.32 121 34 C121.66 34 122.32 34 123 34 C123 34.66 123 35.32 123 36 C123.99 36 124.98 36 126 36 C126 36.99 126 37.98 126 39 C126.66 39 127.32 39 128 39 C128 39.66 128 40.32 128 41 C128.66 41 129.32 41 130 41 C130 41.66 130 42.32 130 43 C130.99 43 131.98 43 133 43 C133 43.99 133 44.98 133 46 C133.66 46 134.32 46 135 46 C135 46.66 135 47.32 135 48 C135.66 48 136.32 48 137 48 C139 50 139 50 141 52.5625 C142.76637442 55.05309672 142.76637442 55.05309672 145 56 C145 56.99 145 57.98 145 59 C145.66 59 146.32 59 147 59 C147 59.99 147 60.98 147 62 C147.66 62 148.32 62 149 62 C150.74627478 64.61941217 151.38722388 66.03824877 152 69 C152.66 69 153.32 69 154 69 C154.99 71.31 155.98 73.62 157 76 C157.66 76 158.32 76 159 76 C159 77.65 159 79.3 159 81 C159.66 81 160.32 81 161 81 C162.98 84.96 162.98 84.96 165 89 C165.33 89 165.66 89 166 89 C166 90.98 166 92.96 166 95 C166.66 95 167.32 95 168 95 C168.12375 95.804375 168.2475 96.60875 168.375 97.4375 C168.58125 98.283125 168.7875 99.12875 169 100 C169.66 100.33 170.32 100.66 171 101 C171.625 104.0625 171.625 104.0625 172 107 C172.33 107 172.66 107 173 107 C173 109.97 173 112.94 173 116 C173.66 116 174.32 116 175 116 C175.1953125 118.05078125 175.390625 120.1015625 175.5859375 122.15234375 C175.72257812 122.76207031 175.85921875 123.37179687 176 124 C176.66 124.33 177.32 124.66 178 125 C178 130.28 178 135.56 178 141 C178.66 141 179.32 141 180 141 C180 157.17 180 173.34 180 190 C179.34 190 178.68 190 178 190 C178 195.94 178 201.88 178 208 C177.34 208.33 176.68 208.66 176 209 C175.53248212 211.35599235 175.53248212 211.35599235 175.375 214.0625 C175.30023437 214.98160156 175.22546875 215.90070313 175.1484375 216.84765625 C175.09945312 217.55792969 175.05046875 218.26820313 175 219 C174.34 219 173.68 219 173 219 C173 221.97 173 224.94 173 228 C172.34 228 171.68 228 171 228 C171 230.64 171 233.28 171 236 C170.01 236 169.02 236 168 236 C168 237.98 168 239.96 168 242 C167.34 242 166.68 242 166 242 C166 243.98 166 245.96 166 248 C165.34 248.33 164.68 248.66 164 249 C163.09656316 250.88263881 163.09656316 250.88263881 162.375 253.0625 C162.11460937 253.79597656 161.85421875 254.52945313 161.5859375 255.28515625 C161.39257812 255.85105469 161.19921875 256.41695313 161 257 C160.34 257 159.68 257 159 257 C159.0928125 258.1446875 159.0928125 258.1446875 159.1875 259.3125 C159 262 159 262 157.625 263.8125 C156 265 156 265 154 265 C154 266.32 154 267.64 154 269 C153.34 269 152.68 269 152 269 C151.896875 269.598125 151.79375 270.19625 151.6875 270.8125 C150.90088144 273.31537724 149.86454169 274.21314755 148 276 C147.67 276.99 147.34 277.98 147 279 C146.34 279 145.68 279 145 279 C145 279.99 145 280.98 145 282 C144.01 282 143.02 282 142 282 C142 282.66 142 283.32 142 284 C141.34 284 140.68 284 140 284 C140 284.99 140 285.98 140 287 C139.01 287 138.02 287 137 287 C137 287.66 137 288.32 137 289 C136.34 289 135.68 289 135 289 C135 289.66 135 290.32 135 291 C134.34 291 133.68 291 133 291 C133 291.99 133 292.98 133 294 C132.01 294 131.02 294 130 294 C130 294.66 130 295.32 130 296 C129.34 296 128.68 296 128 296 C128 296.66 128 297.32 128 298 C127.34 298 126.68 298 126 298 C125.67 298.99 125.34 299.98 125 301 C123.27909203 302.03903878 121.5523026 303.0718841 119.77734375 304.015625 C117.85170252 305.02227878 117.85170252 305.02227878 115.75 306.75 C114 308 114 308 111 308 C111 308.66 111 309.32 111 310 C109.68 310.33 108.36 310.66 107 311 C107 311.66 107 312.32 107 313 C106.01 313 105.02 313 104 313 C104 313.66 104 314.32 104 315 C102.68 315 101.36 315 100 315 C99.67 315.99 99.34 316.98 99 318 C98.01 318 97.02 318 96 318 C95.67 318.66 95.34 319.32 95 320 C93.35 320 91.7 320 90 320 C90 320.66 90 321.32 90 322 C87.69 322 85.38 322 83 322 C83 322.99 83 323.98 83 325 C80.69 325 78.38 325 76 325 C76 325.66 76 326.32 76 327 C73.69 327 71.38 327 69 327 C69 327.66 69 328.32 69 329 C65.7 329.33 62.4 329.66 59 330 C59 330.66 59 331.32 59 332 C47.77757612 332.86280982 36.62733968 333.15761765 25.37451172 333.13037109 C22.76654168 333.12503385 20.15874597 333.13034231 17.55078125 333.13671875 C5.67367736 333.14090024 -6.14420352 332.69711956 -18 332 C-18.33 331.34 -18.66 330.68 -19 330 C-21.8159849 329.53101037 -21.8159849 329.53101037 -25.0625 329.375 C-26.16722656 329.30023438 -27.27195312 329.22546875 -28.41015625 329.1484375 C-29.26480469 329.09945313 -30.11945312 329.05046875 -31 329 C-31 328.34 -31 327.68 -31 327 C-32.7634375 327.061875 -32.7634375 327.061875 -34.5625 327.125 C-38.74766947 327.125 -42.07123237 326.44322076 -46 325 C-46.33 324.34 -46.66 323.68 -47 323 C-49.52733235 322.34444881 -49.52733235 322.34444881 -52 322 C-52 321.34 -52 320.68 -52 320 C-54.31 320 -56.62 320 -59 320 C-59 319.34 -59 318.68 -59 318 C-60.65 318 -62.3 318 -64 318 C-64 317.01 -64 316.02 -64 315 C-65.65 315 -67.3 315 -69 315 C-69 314.34 -69 313.68 -69 313 C-69.99 313 -70.98 313 -72 313 C-72.33 312.34 -72.66 311.68 -73 311 C-73.99 311 -74.98 311 -76 311 C-76 310.01 -76 309.02 -76 308 C-77.32 308 -78.64 308 -80 308 C-80.66 307.34 -81.32 306.68 -82 306 C-84.08506604 304.73137548 -86.19778188 303.52118786 -88.3203125 302.31640625 C-88.87460938 301.88199219 -89.42890625 301.44757813 -90 301 C-90 300.01 -90 299.02 -90 298 C-90.66 298 -91.32 298 -92 298 C-92 297.34 -92 296.68 -92 296 C-92.99 296 -93.98 296 -95 296 C-95 295.34 -95 294.68 -95 294 C-95.66 294 -96.32 294 -97 294 C-97.66 292.35 -98.32 290.7 -99 289 C-99.99 289 -100.98 289 -102 289 C-102 288.34 -102 287.68 -102 287 C-102.66 287 -103.32 287 -104 287 C-104 286.01 -104 285.02 -104 284 C-104.66 284 -105.32 284 -106 284 C-107.625 282.6875 -107.625 282.6875 -109 281 C-109 280.01 -109 279.02 -109 278 C-109.66 278 -110.32 278 -111 278 C-111 277.01 -111 276.02 -111 275 C-111.99 275 -112.98 275 -114 275 C-114 274.01 -114 273.02 -114 272 C-114.66 272 -115.32 272 -116 272 C-116 270.68 -116 269.36 -116 268 C-116.66 268 -117.32 268 -118 268 C-118 267.01 -118 266.02 -118 265 C-118.99 265 -119.98 265 -121 265 C-121 263.35 -121 261.7 -121 260 C-121.66 260 -122.32 260 -123 260 C-123 258.68 -123 257.36 -123 256 C-123.66 256 -124.32 256 -125 256 C-125.495 254.02 -125.495 254.02 -126 252 C-126.66 252 -127.32 252 -128 252 C-128 250.35 -128 248.7 -128 247 C-128.66 247 -129.32 247 -130 247 C-130 245.35 -130 243.7 -130 242 C-130.99 242 -131.98 242 -133 242 C-133 240.02 -133 238.04 -133 236 C-133.66 236 -134.32 236 -135 236 C-135 233.69 -135 231.38 -135 229 C-135.66 229 -136.32 229 -137 229 C-137.33 227.02 -137.66 225.04 -138 223 C-138.66 223 -139.32 223 -140 223 C-140 219.7 -140 216.4 -140 213 C-140.66 213 -141.32 213 -142 213 C-142.09087891 211.71802734 -142.09087891 211.71802734 -142.18359375 210.41015625 C-142.26738281 209.30542969 -142.35117188 208.20070313 -142.4375 207.0625 C-142.51871094 205.96035156 -142.59992187 204.85820312 -142.68359375 203.72265625 C-142.70418084 201.08890097 -142.70418084 201.08890097 -144 200 C-144.09905152 198.16427369 -144.12799207 196.32472425 -144.12939453 194.48632812 C-144.13254669 193.30840698 -144.13569885 192.13048584 -144.13894653 190.91687012 C-144.1369223 189.63461548 -144.13489807 188.35236084 -144.1328125 187.03125 C-144.13376923 185.72546997 -144.13472595 184.41968994 -144.13571167 183.07434082 C-144.13718833 180.30687278 -144.13503511 177.53943696 -144.13037109 174.77197266 C-144.12467381 171.21737351 -144.12795298 167.66284986 -144.13394356 164.10825348 C-144.13841747 160.72841286 -144.13528886 157.34859277 -144.1328125 153.96875 C-144.13483673 152.68649536 -144.13686096 151.40424072 -144.13894653 150.08312988 C-144.13579437 148.90520874 -144.13264221 147.7272876 -144.12939453 146.51367188 C-144.12859894 145.47078003 -144.12780334 144.42788818 -144.12698364 143.35339355 C-144 141 -144 141 -143 140 C-142.76518307 137.81707226 -142.58636677 135.62796826 -142.4375 133.4375 C-142.35371094 132.23996094 -142.26992187 131.04242188 -142.18359375 129.80859375 C-142.12300781 128.88175781 -142.06242187 127.95492187 -142 127 C-141.34 127 -140.68 127 -140 127 C-140 123.7 -140 120.4 -140 117 C-139.34 117 -138.68 117 -138 117 C-137.67 114.36 -137.34 111.72 -137 109 C-136.34 109 -135.68 109 -135 109 C-135 106.69 -135 104.38 -135 102 C-134.34 102 -133.68 102 -133 102 C-133 100.02 -133 98.04 -133 96 C-132.01 95.505 -132.01 95.505 -131 95 C-130.34444881 92.47266765 -130.34444881 92.47266765 -130 90 C-129.34 90 -128.68 90 -128 90 C-128 88.02 -128 86.04 -128 84 C-127.01 83.505 -127.01 83.505 -126 83 C-125.09656316 81.11736119 -125.09656316 81.11736119 -124.375 78.9375 C-124.11460937 78.20402344 -123.85421875 77.47054687 -123.5859375 76.71484375 C-123.39257812 76.14894531 -123.19921875 75.58304687 -123 75 C-122.34 75 -121.68 75 -121 75 C-121 73.68 -121 72.36 -121 71 C-120.01 71 -119.02 71 -118 71 C-117.855625 70.38125 -117.71125 69.7625 -117.5625 69.125 C-117 67 -117 67 -116 65 C-115.34 65 -114.68 65 -114 65 C-113.87625 64.401875 -113.7525 63.80375 -113.625 63.1875 C-113 61 -113 61 -111 58 C-110.34 58 -109.68 58 -109 58 C-108.67 57.01 -108.34 56.02 -108 55 C-105.9375 53.8125 -105.9375 53.8125 -104 53 C-104 52.34 -104 51.68 -104 51 C-103.34 51 -102.68 51 -102 51 C-102 50.01 -102 49.02 -102 48 C-99.625 45.3125 -99.625 45.3125 -97 43 C-96.34 43 -95.68 43 -95 43 C-95 42.34 -95 41.68 -95 41 C-93.625 39.375 -93.625 39.375 -92 38 C-91.34 38 -90.68 38 -90 38 C-90 37.34 -90 36.68 -90 36 C-89.34 36 -88.68 36 -88 36 C-88 35.34 -88 34.68 -88 34 C-87.01 34 -86.02 34 -85 34 C-84.67 33.01 -84.34 32.02 -84 31 C-83.01 31 -82.02 31 -81 31 C-81 30.34 -81 29.68 -81 29 C-80.01 29 -79.02 29 -78 29 C-78 28.34 -78 27.68 -78 27 C-77.34 27 -76.68 27 -76 27 C-75.67 26.34 -75.34 25.68 -75 25 C-72.9375 24.375 -72.9375 24.375 -71 24 C-71 23.34 -71 22.68 -71 22 C-69.35 22 -67.7 22 -66 22 C-66 21.01 -66 20.02 -66 19 C-64.35 19 -62.7 19 -61 19 C-61 18.34 -61 17.68 -61 17 C-59.68 17 -58.36 17 -57 17 C-57 16.34 -57 15.68 -57 15 C-55.35 15 -53.7 15 -52 15 C-52 14.01 -52 13.02 -52 12 C-49.69 12 -47.38 12 -45 12 C-45 11.34 -45 10.68 -45 10 C-42.69 10 -40.38 10 -38 10 C-37.67 9.01 -37.34 8.02 -37 7 C-34.03 7 -31.06 7 -28 7 C-28 6.34 -28 5.68 -28 5 C-27.04287109 4.90912109 -27.04287109 4.90912109 -26.06640625 4.81640625 C-25.24011719 4.73261719 -24.41382812 4.64882812 -23.5625 4.5625 C-22.73878906 4.48128906 -21.91507813 4.40007812 -21.06640625 4.31640625 C-19.01337975 4.21069185 -19.01337975 4.21069185 -18 3 C-16.65732587 2.91368126 -15.31025678 2.89293527 -13.96484375 2.90234375 C-13.15595703 2.90556641 -12.34707031 2.90878906 -11.51367188 2.91210938 C-10.66353516 2.92048828 -9.81339844 2.92886719 -8.9375 2.9375 C-8.08349609 2.94201172 -7.22949219 2.94652344 -6.34960938 2.95117188 C-4.23304337 2.96299627 -2.11651315 2.98093231 0 3 C0 2.01 0 1.02 0 0 Z M12 83 C11.67 83.66 11.34 84.32 11 85 C9.07421875 85.34375 9.07421875 85.34375 6.6875 85.5 C3.29377299 85.72437865 0.96866291 86.31526681 -2 88 C-2 88.66 -2 89.32 -2 90 C-2.78375 90.144375 -3.5675 90.28875 -4.375 90.4375 C-6.96421018 90.87798925 -6.96421018 90.87798925 -9 92 C-9 92.99 -9 93.98 -9 95 C-9.99 95 -10.98 95 -12 95 C-12 95.66 -12 96.32 -12 97 C-12.66 97 -13.32 97 -14 97 C-14 97.66 -14 98.32 -14 99 C-14.639375 99.268125 -15.27875 99.53625 -15.9375 99.8125 C-18.33131686 100.88667752 -18.33131686 100.88667752 -19 104 C-19.66 104 -20.32 104 -21 104 C-22.41377341 106.63904371 -23.37240135 109.07120629 -24 112 C-24.66 112 -25.32 112 -26 112 C-26 113.32 -26 114.64 -26 116 C-26.66 116 -27.32 116 -28 116 C-28.12375 116.969375 -28.2475 117.93875 -28.375 118.9375 C-28.58125 119.948125 -28.7875 120.95875 -29 122 C-29.99 122.495 -29.99 122.495 -31 123 C-33.16848079 128.86765391 -33.57342229 134.79217176 -34 141 C-34.33 141 -34.66 141 -35 141 C-35 158.49 -35 175.98 -35 194 C-34.67 194 -34.34 194 -34 194 C-33.67 197.63 -33.34 201.26 -33 205 C-32.34 205 -31.68 205 -31 205 C-31 207.31 -31 209.62 -31 212 C-30.01 212.33 -29.02 212.66 -28 213 C-28 214.98 -28 216.96 -28 219 C-27.34 219 -26.68 219 -26 219 C-25.87625 219.7425 -25.7525 220.485 -25.625 221.25 C-25.04513299 223.80141485 -24.26291261 225.7267573 -23 228 C-22.34 228 -21.68 228 -21 228 C-20.896875 228.556875 -20.79375 229.11375 -20.6875 229.6875 C-19.85101237 232.50114022 -18.71782737 234.62146979 -17 237 C-16.01 237 -15.02 237 -14 237 C-14 237.99 -14 238.98 -14 240 C-13.34 240 -12.68 240 -12 240 C-12 240.66 -12 241.32 -12 242 C-11.01 242 -10.02 242 -9 242 C-9 242.66 -9 243.32 -9 244 C-8.01 244.33 -7.02 244.66 -6 245 C-5.505 245.99 -5.505 245.99 -5 247 C-3.35 247 -1.7 247 0 247 C0 247.66 0 248.32 0 249 C2.64 249.33 5.28 249.66 8 250 C8 250.33 8 250.66 8 251 C14.93 251 21.86 251 29 251 C29 250.34 29 249.68 29 249 C31.31 249 33.62 249 36 249 C36 248.34 36 247.68 36 247 C37.32 247 38.64 247 40 247 C40 246.34 40 245.68 40 245 C40.78375 244.690625 41.5675 244.38125 42.375 244.0625 C44.92330128 243.07124962 44.92330128 243.07124962 47 242 C47 241.34 47 240.68 47 240 C47.99 240 48.98 240 50 240 C50 239.01 50 238.02 50 237 C50.66 237 51.32 237 52 237 C52 236.34 52 235.68 52 235 C52.99 234.67 53.98 234.34 55 234 C57.2773501 231.18490007 57.2773501 231.18490007 57 228 C57.66 228 58.32 228 59 228 C59.4640625 227.0409375 59.4640625 227.0409375 59.9375 226.0625 C61 224 61 224 62 223 C62.04063832 221.33382885 62.042721 219.66611905 62 218 C62.66 218 63.32 218 64 218 C64 215.69 64 213.38 64 211 C64.66 211 65.32 211 66 211 C66 208.36 66 205.72 66 203 C66.99 202.67 67.98 202.34 69 202 C69.06058594 201.28972656 69.12117188 200.57945312 69.18359375 199.84765625 C69.30927734 198.46900391 69.30927734 198.46900391 69.4375 197.0625 C69.55931641 195.68771484 69.55931641 195.68771484 69.68359375 194.28515625 C70 192 70 192 71 191 C71.09311889 189.49581261 71.11746028 187.98728644 71.11352539 186.48022461 C71.11344986 185.51930405 71.11337433 184.55838348 71.11329651 183.56834412 C71.10813522 182.523564 71.10297394 181.47878387 71.09765625 180.40234375 C71.0962413 179.33834854 71.09482635 178.27435333 71.09336853 177.17811584 C71.08775064 173.76454917 71.07519511 170.351047 71.0625 166.9375 C71.05748731 164.62955824 71.052924 162.32161545 71.04882812 160.01367188 C71.0377754 154.34242574 71.02101987 148.67121747 71 143 C70.34 143 69.68 143 69 143 C69 139.04 69 135.08 69 131 C68.34 130.67 67.68 130.34 67 130 C66.59270772 127.67843403 66.25561323 125.3431213 66 123 C65.34 123 64.68 123 64 123 C64.061875 122.278125 64.12375 121.55625 64.1875 120.8125 C63.96253379 117.43800685 63.00130237 115.69406089 61 113 C60.34 113 59.68 113 59 113 C59 111.35 59 109.7 59 108 C58.34 108 57.68 108 57 108 C56.9175 107.443125 56.835 106.88625 56.75 106.3125 C55.76104459 103.26322081 54.15242534 101.34810037 52 99 C51.34 99 50.68 99 50 99 C49.505 97.02 49.505 97.02 49 95 C47.68 94.67 46.36 94.34 45 94 C45 93.34 45 92.68 45 92 C44.34 92 43.68 92 43 92 C43 91.34 43 90.68 43 90 C42.01 90 41.02 90 40 90 C40 89.34 40 88.68 40 88 C38.68 88 37.36 88 36 88 C35.505 86.515 35.505 86.515 35 85 C32.03 85 29.06 85 26 85 C26 84.34 26 83.68 26 83 C21.38 83 16.76 83 12 83 Z " fill="#000000" transform="translate(2812,143)"/>
<path d="M0 0 C10.89 0 21.78 0 33 0 C33 0.66 33 1.32 33 2 C39.27 2.33 45.54 2.66 52 3 C52 3.66 52 4.32 52 5 C55.96 5 59.92 5 64 5 C64 5.66 64 6.32 64 7 C66.64 7 69.28 7 72 7 C72.33 7.99 72.66 8.98 73 10 C75.31 10 77.62 10 80 10 C80 10.66 80 11.32 80 12 C81.98 12 83.96 12 86 12 C86.33 12.66 86.66 13.32 87 14 C89.52733235 14.65555119 89.52733235 14.65555119 92 15 C92 15.66 92 16.32 92 17 C93.65 17 95.3 17 97 17 C97 17.66 97 18.32 97 19 C98.65 19.33 100.3 19.66 102 20 C102 20.66 102 21.32 102 22 C103.32 22 104.64 22 106 22 C106 22.66 106 23.32 106 24 C106.99 24 107.98 24 109 24 C109 24.66 109 25.32 109 26 C110.32 26.33 111.64 26.66 113 27 C113 27.66 113 28.32 113 29 C113.99 29 114.98 29 116 29 C116 29.66 116 30.32 116 31 C117.65 31.33 119.3 31.66 121 32 C121 32.66 121 33.32 121 34 C121.66 34 122.32 34 123 34 C123 34.66 123 35.32 123 36 C123.66 36 124.32 36 125 36 C126.625 37.375 126.625 37.375 128 39 C128 39.66 128 40.32 128 41 C128.66 41 129.32 41 130 41 C130 41.66 130 42.32 130 43 C130.66 43 131.32 43 132 43 C133.625 44.375 133.625 44.375 135 46 C135 46.66 135 47.32 135 48 C135.66 48 136.32 48 137 48 C139.625 50.3125 139.625 50.3125 142 53 C142 53.99 142 54.98 142 56 C142.66 56 143.32 56 144 56 C145.625 57.3125 145.625 57.3125 147 59 C147 59.99 147 60.98 147 62 C147.66 62 148.32 62 149 62 C149.45375 62.969375 149.9075 63.93875 150.375 64.9375 C151.65786221 68.07079582 151.65786221 68.07079582 154 69 C155.03515625 70.70703125 155.03515625 70.70703125 156.0625 72.8125 C156.57490234 73.84310547 156.57490234 73.84310547 157.09765625 74.89453125 C157.96535994 76.91917319 158.53169072 78.85157081 159 81 C159.66 81 160.32 81 161 81 C161 82.32 161 83.64 161 85 C161.66 85 162.32 85 163 85 C163.66 86.32 164.32 87.64 165 89 C165.33 89 165.66 89 166 89 C166 90.98 166 92.96 166 95 C166.66 95 167.32 95 168 95 C168 96.98 168 98.96 168 101 C168.66 101 169.32 101 170 101 C170.33 102.98 170.66 104.96 171 107 C171.66 107 172.32 107 173 107 C173 109.97 173 112.94 173 116 C173.66 116 174.32 116 175 116 C175.06058594 116.63808594 175.12117188 117.27617187 175.18359375 117.93359375 C175.30927734 119.17302734 175.30927734 119.17302734 175.4375 120.4375 C175.51871094 121.26121094 175.59992188 122.08492188 175.68359375 122.93359375 C175.78930815 124.98662025 175.78930815 124.98662025 177 126 C177.28528471 129.62266294 177.44912228 133.24530434 177.62109375 136.875 C177.74613281 137.90625 177.87117188 138.9375 178 140 C178.66 140.33 179.32 140.66 180 141 C180.05058729 147.94170022 180.08568579 154.88335315 180.10986328 161.82519531 C180.11993924 164.18816911 180.13360029 166.55113039 180.15087891 168.9140625 C180.17505724 172.30471888 180.18646699 175.69521084 180.1953125 179.0859375 C180.20563507 180.14743011 180.21595764 181.20892273 180.22659302 182.30258179 C180.22674408 183.28344757 180.22689514 184.26431335 180.22705078 185.27490234 C180.231492 186.14094086 180.23593323 187.00697937 180.24050903 187.89926147 C180 190 180 190 178 192 C177.71964468 194.54631996 177.53469669 197.00930887 177.4375 199.5625 C177.11993243 206.88006757 177.11993243 206.88006757 176 208 C175.76636119 209.84891946 175.58696365 211.70488031 175.4375 213.5625 C175.35371094 214.57441406 175.26992187 215.58632813 175.18359375 216.62890625 C175.12300781 217.41136719 175.06242187 218.19382812 175 219 C174.34 219 173.68 219 173 219 C173 221.97 173 224.94 173 228 C172.34 228.33 171.68 228.66 171 229 C170.59270772 231.32156597 170.25561323 233.6568787 170 236 C169.34 236 168.68 236 168 236 C168 237.98 168 239.96 168 242 C167.34 242 166.68 242 166 242 C166 243.98 166 245.96 166 248 C165.34 248 164.68 248 164 248 C163.70996094 248.95712891 163.70996094 248.95712891 163.4140625 249.93359375 C163.02347656 251.17302734 163.02347656 251.17302734 162.625 252.4375 C162.36976563 253.26121094 162.11453125 254.08492187 161.8515625 254.93359375 C161 257 161 257 159 258 C157.94647157 260.30965848 156.94280904 262.6429774 156 265 C155.34 265 154.68 265 154 265 C154 266.65 154 268.3 154 270 C153.34 270 152.68 270 152 270 C151.67 270.66 151.34 271.32 151 272 C150.34 272 149.68 272 149 272 C149 273.32 149 274.64 149 276 C148.34 276 147.68 276 147 276 C147 276.99 147 277.98 147 279 C146.01 279 145.02 279 144 279 C144 279.99 144 280.98 144 282 C143.34 282 142.68 282 142 282 C142 282.66 142 283.32 142 284 C141.34 284 140.68 284 140 284 C140 284.99 140 285.98 140 287 C139.01 287 138.02 287 137 287 C137 287.66 137 288.32 137 289 C136.34 289 135.68 289 135 289 C135 289.66 135 290.32 135 291 C133.625 292.625 133.625 292.625 132 294 C131.34 294 130.68 294 130 294 C130 294.66 130 295.32 130 296 C129.34 296 128.68 296 128 296 C128 296.66 128 297.32 128 298 C126.75 299.625 126.75 299.625 125 301 C123.68 301 122.36 301 121 301 C121 301.66 121 302.32 121 303 C117.8000997 306.01704885 115.38462134 307.49890042 111 308 C111 308.66 111 309.32 111 310 C109.68 310.33 108.36 310.66 107 311 C107 311.66 107 312.32 107 313 C106.01 313 105.02 313 104 313 C104 313.66 104 314.32 104 315 C102.35 315 100.7 315 99 315 C99 315.99 99 316.98 99 318 C96.01758453 318.77321882 93.02419525 319.41196203 90 320 C90 320.66 90 321.32 90 322 C87.69 322 85.38 322 83 322 C83 322.99 83 323.98 83 325 C80.69 325 78.38 325 76 325 C76 325.66 76 326.32 76 327 C73.36 327 70.72 327 68 327 C68 327.66 68 328.32 68 329 C67.36191406 329.04898437 66.72382812 329.09796875 66.06640625 329.1484375 C64.82697266 329.26058594 64.82697266 329.26058594 63.5625 329.375 C62.73878906 329.44460938 61.91507813 329.51421875 61.06640625 329.5859375 C60.38449219 329.72257812 59.70257812 329.85921875 59 330 C58.67 330.66 58.34 331.32 58 332 C46.28951922 333.65113745 34.11462672 333.15963 22.3125 333.125 C21.43924072 333.12411377 20.56598145 333.12322754 19.66625977 333.12231445 C6.75571554 333.1069349 -6.11551563 332.88422932 -19 332 C-19 331.01 -19 330.02 -19 329 C-22.96 329 -26.92 329 -31 329 C-31 328.34 -31 327.68 -31 327 C-32.9490625 327.0309375 -32.9490625 327.0309375 -34.9375 327.0625 C-36.29165633 327.08399454 -37.64756083 327.07148199 -39 327 C-39.33 326.67 -39.66 326.34 -40 326 C-41.155 325.855625 -42.31 325.71125 -43.5 325.5625 C-44.655 325.376875 -45.81 325.19125 -47 325 C-47.33 324.34 -47.66 323.68 -48 323 C-50.02463255 322.34786708 -50.02463255 322.34786708 -52 322 C-52 321.34 -52 320.68 -52 320 C-54.31 320 -56.62 320 -59 320 C-59 319.34 -59 318.68 -59 318 C-60.65 318 -62.3 318 -64 318 C-64 317.01 -64 316.02 -64 315 C-65.65 315 -67.3 315 -69 315 C-69 314.34 -69 313.68 -69 313 C-70.65 312.67 -72.3 312.34 -74 312 C-74 311.34 -74 310.68 -74 310 C-74.66 310 -75.32 310 -76 310 C-76 309.34 -76 308.68 -76 308 C-77.65 308 -79.3 308 -81 308 C-81 307.34 -81 306.68 -81 306 C-81.66 306 -82.32 306 -83 306 C-84 305 -85 304 -86 303 C-86.66 303 -87.32 303 -88 303 C-88 302.34 -88 301.68 -88 301 C-88.66 301 -89.32 301 -90 301 C-91.625 299.625 -91.625 299.625 -93 298 C-93 297.34 -93 296.68 -93 296 C-93.66 296 -94.32 296 -95 296 C-95 295.34 -95 294.68 -95 294 C-95.66 294 -96.32 294 -97 294 C-99 292 -99 292 -100 289 C-100.66 289 -101.32 289 -102 289 C-102 288.34 -102 287.68 -102 287 C-102.66 287 -103.32 287 -104 287 C-104 286.01 -104 285.02 -104 284 C-104.99 284 -105.98 284 -107 284 C-107 283.01 -107 282.02 -107 281 C-107.66 281 -108.32 281 -109 281 C-109 280.01 -109 279.02 -109 278 C-109.66 278 -110.32 278 -111 278 C-111 277.01 -111 276.02 -111 275 C-111.99 275 -112.98 275 -114 275 C-114 274.01 -114 273.02 -114 272 C-114.66 272 -115.32 272 -116 272 C-116 270.68 -116 269.36 -116 268 C-116.99 268 -117.98 268 -119 268 C-119 267.01 -119 266.02 -119 265 C-119.66 265 -120.32 265 -121 265 C-121.19335938 264.43410156 -121.38671875 263.86820312 -121.5859375 263.28515625 C-121.84632813 262.55167969 -122.10671875 261.81820313 -122.375 261.0625 C-122.63023437 260.33160156 -122.88546875 259.60070312 -123.1484375 258.84765625 C-123.85271413 256.81317884 -123.85271413 256.81317884 -126 256 C-126 254.68 -126 253.36 -126 252 C-126.66 252 -127.32 252 -128 252 C-129.12880057 248.68885166 -130.21302675 245.41021743 -131 242 C-131.66 242 -132.32 242 -133 242 C-133 240.02 -133 238.04 -133 236 C-133.66 236 -134.32 236 -135 236 C-135 233.69 -135 231.38 -135 229 C-135.99 229 -136.98 229 -138 229 C-138 226.69 -138 224.38 -138 222 C-138.66 222 -139.32 222 -140 222 C-140.22786458 219.94921875 -140.45572917 217.8984375 -140.68359375 215.84765625 C-140.81886614 213.98859771 -140.81886614 213.98859771 -142 213 C-142.28318854 210.15912448 -142.44850213 207.31834785 -142.62109375 204.46875 C-142.74613281 203.6540625 -142.87117187 202.839375 -143 202 C-143.66 201.67 -144.32 201.34 -145 201 C-145 180.54 -145 160.08 -145 139 C-144.34 139 -143.68 139 -143 139 C-142.67 135.04 -142.34 131.08 -142 127 C-141.34 127 -140.68 127 -140 127 C-140 124.03 -140 121.06 -140 118 C-139.34 118 -138.68 118 -138 118 C-138 115.03 -138 112.06 -138 109 C-137.34 109 -136.68 109 -136 109 C-135.67 106.69 -135.34 104.38 -135 102 C-134.34 102 -133.68 102 -133 102 C-133 99.69 -133 97.38 -133 95 C-132.01 94.505 -132.01 94.505 -131 94 C-130.34786708 91.97536745 -130.34786708 91.97536745 -130 90 C-129.34 90 -128.68 90 -128 90 C-128 88.35 -128 86.7 -128 85 C-127.34 85 -126.68 85 -126 85 C-126 83.02 -126 81.04 -126 79 C-125.34 79 -124.68 79 -124 79 C-123.67 77.68 -123.34 76.36 -123 75 C-122.34 75 -121.68 75 -121 75 C-121 73.68 -121 72.36 -121 71 C-120.34 71 -119.68 71 -119 71 C-118.896875 70.401875 -118.79375 69.80375 -118.6875 69.1875 C-117.8967321 66.67142032 -116.91571363 65.76245654 -115 64 C-114.34 63.01 -113.68 62.02 -113 61 C-112.34 60.01 -111.68 59.02 -111 58 C-110.34 58 -109.68 58 -109 58 C-109 57.01 -109 56.02 -109 55 C-108.34 55 -107.68 55 -107 55 C-107 54.34 -107 53.68 -107 53 C-104.625 50.375 -104.625 50.375 -102 48 C-101.34 48 -100.68 48 -100 48 C-99.67 47.01 -99.34 46.02 -99 45 C-96.9375 43.8125 -96.9375 43.8125 -95 43 C-95 42.34 -95 41.68 -95 41 C-94.34 41 -93.68 41 -93 41 C-93 40.01 -93 39.02 -93 38 C-92.01 38 -91.02 38 -90 38 C-90 37.34 -90 36.68 -90 36 C-89.34 36 -88.68 36 -88 36 C-88 35.34 -88 34.68 -88 34 C-85.4385343 31.70351351 -84.52032428 31 -81 31 C-81 30.34 -81 29.68 -81 29 C-80.01 29 -79.02 29 -78 29 C-78 28.34 -78 27.68 -78 27 C-77.34 27 -76.68 27 -76 27 C-75.505 25.515 -75.505 25.515 -75 24 C-73.68 24 -72.36 24 -71 24 C-71 23.34 -71 22.68 -71 22 C-70.360625 21.87625 -69.72125 21.7525 -69.0625 21.625 C-68.381875 21.41875 -67.70125 21.2125 -67 21 C-66.67 20.34 -66.34 19.68 -66 19 C-64.68 19 -63.36 19 -62 19 C-62 18.34 -62 17.68 -62 17 C-60.35 17 -58.7 17 -57 17 C-57 16.34 -57 15.68 -57 15 C-55.35 15 -53.7 15 -52 15 C-52 14.01 -52 13.02 -52 12 C-49.69 12 -47.38 12 -45 12 C-45 11.34 -45 10.68 -45 10 C-42.69 10 -40.38 10 -38 10 C-38 9.01 -38 8.02 -38 7 C-37.04287109 6.90912109 -37.04287109 6.90912109 -36.06640625 6.81640625 C-35.24011719 6.73261719 -34.41382813 6.64882812 -33.5625 6.5625 C-32.73878906 6.48128906 -31.91507813 6.40007812 -31.06640625 6.31640625 C-29.01337975 6.21069185 -29.01337975 6.21069185 -28 5 C-25.68182911 4.67902249 -23.36220643 4.48779044 -21.03125 4.28125 C-19.00819407 4.20934163 -19.00819407 4.20934163 -18 3 C-16.65732587 2.91368126 -15.31025678 2.89293527 -13.96484375 2.90234375 C-13.15595703 2.90556641 -12.34707031 2.90878906 -11.51367188 2.91210938 C-10.66353516 2.92048828 -9.81339844 2.92886719 -8.9375 2.9375 C-8.08349609 2.94201172 -7.22949219 2.94652344 -6.34960938 2.95117188 C-4.23304337 2.96299627 -2.11651315 2.98093231 0 3 C0 2.01 0 1.02 0 0 Z M12 83 C12 83.66 12 84.32 12 85 C10.906875 84.979375 9.81375 84.95875 8.6875 84.9375 C5.05615809 84.81455548 5.05615809 84.81455548 2 86 C2 86.66 2 87.32 2 88 C0.35 88 -1.3 88 -3 88 C-3 88.66 -3 89.32 -3 90 C-3.969375 90.268125 -4.93875 90.53625 -5.9375 90.8125 C-6.948125 91.204375 -7.95875 91.59625 -9 92 C-9.33 92.99 -9.66 93.98 -10 95 C-10.66 95 -11.32 95 -12 95 C-12 95.66 -12 96.32 -12 97 C-12.66 97 -13.32 97 -14 97 C-14 97.66 -14 98.32 -14 99 C-14.86625 99.3403125 -14.86625 99.3403125 -15.75 99.6875 C-19.54364023 101.9004568 -21.60055388 105.40083082 -24 109 C-24 109.99 -24 110.98 -24 112 C-24.66 112 -25.32 112 -26 112 C-26 113.32 -26 114.64 -26 116 C-27.485 116.495 -27.485 116.495 -29 117 C-30.98834962 121.39529916 -31.19118486 125.22037853 -31 130 C-31.66 130 -32.32 130 -33 130 C-33.04898438 130.78246094 -33.09796875 131.56492187 -33.1484375 132.37109375 C-33.22320313 133.38300781 -33.29796875 134.39492188 -33.375 135.4375 C-33.44460938 136.44683594 -33.51421875 137.45617187 -33.5859375 138.49609375 C-33.72257813 139.32238281 -33.85921875 140.14867187 -34 141 C-34.99 141.495 -34.99 141.495 -36 142 C-36 158.83 -36 175.66 -36 193 C-35.34 193.33 -34.68 193.66 -34 194 C-33.5859375 196.50390625 -33.5859375 196.50390625 -33.375 199.5625 C-33.30023437 200.57441406 -33.22546875 201.58632813 -33.1484375 202.62890625 C-33.09945312 203.41136719 -33.05046875 204.19382812 -33 205 C-32.34 205 -31.68 205 -31 205 C-31 207.64 -31 210.28 -31 213 C-30.34 213 -29.68 213 -29 213 C-29 214.65 -29 216.3 -29 218 C-28.34 218.33 -27.68 218.66 -27 219 C-26.375 221.0625 -26.375 221.0625 -26 223 C-25.34 223 -24.68 223 -24 223 C-24 224.65 -24 226.3 -24 228 C-23.34 228 -22.68 228 -22 228 C-21.731875 228.556875 -21.46375 229.11375 -21.1875 229.6875 C-19.88383449 232.22621704 -18.62991973 234.65291559 -17 237 C-16.01 237 -15.02 237 -14 237 C-14 237.99 -14 238.98 -14 240 C-13.34 240 -12.68 240 -12 240 C-12 240.66 -12 241.32 -12 242 C-11.01 242 -10.02 242 -9 242 C-9 242.66 -9 243.32 -9 244 C-7.68 244.33 -6.36 244.66 -5 245 C-5 245.66 -5 246.32 -5 247 C-3.35 247 -1.7 247 0 247 C0 247.66 0 248.32 0 249 C2.64 249 5.28 249 8 249 C8 249.66 8 250.32 8 251 C14.6 251 21.2 251 28 251 C28 250.34 28 249.68 28 249 C30.31 249 32.62 249 35 249 C35 248.34 35 247.68 35 247 C36.65 247 38.3 247 40 247 C40 246.34 40 245.68 40 245 C41.32 244.67 42.64 244.34 44 244 C44 243.34 44 242.68 44 242 C44.99 242 45.98 242 47 242 C47 241.34 47 240.68 47 240 C47.99 239.67 48.98 239.34 50 239 C50 238.34 50 237.68 50 237 C50.66 237 51.32 237 52 237 C52 236.34 52 235.68 52 235 C52.66 235 53.32 235 54 235 C56.31592022 231.77885843 56.31592022 231.77885843 57 228 C57.66 228 58.32 228 59 228 C60.4346589 225.5132579 61.0488814 223.6883811 61.5 220.8125 C61.665 219.884375 61.83 218.95625 62 218 C62.66 217.67 63.32 217.34 64 217 C64 215.02 64 213.04 64 211 C64.66 211 65.32 211 66 211 C66 208.36 66 205.72 66 203 C66.99 202.67 67.98 202.34 69 202 C69.06058594 201.28972656 69.12117188 200.57945312 69.18359375 199.84765625 C69.30927734 198.46900391 69.30927734 198.46900391 69.4375 197.0625 C69.55931641 195.68771484 69.55931641 195.68771484 69.68359375 194.28515625 C70 192 70 192 71 191 C71.09822744 189.53194708 71.1279837 188.0592254 71.12939453 186.58789062 C71.13412277 185.18138245 71.13412277 185.18138245 71.13894653 183.74645996 C71.1369223 182.72669067 71.13489807 181.70692139 71.1328125 180.65625 C71.13424759 179.09710876 71.13424759 179.09710876 71.13571167 177.50646973 C71.13639363 175.30395446 71.13453827 173.10143721 71.13037109 170.89892578 C71.12502308 167.51460281 71.13031559 164.13041256 71.13671875 160.74609375 C71.13605797 158.61197887 71.13477681 156.47786408 71.1328125 154.34375 C71.13584885 152.81409607 71.13584885 152.81409607 71.13894653 151.25354004 C71.13579437 150.31586792 71.13264221 149.3781958 71.12939453 148.41210938 C71.12859894 147.58239624 71.12780334 146.75268311 71.12698364 145.89782715 C71.20842552 143.98898476 71.20842552 143.98898476 70 143 C69.60333773 140.81980521 69.25684763 138.6303537 68.9375 136.4375 C68.67259766 134.64119141 68.67259766 134.64119141 68.40234375 132.80859375 C68.26957031 131.88175781 68.13679688 130.95492187 68 130 C67.67 130 67.34 130 67 130 C66.505 126.535 66.505 126.535 66 123 C65.34 123 64.68 123 64 123 C64 121.35 64 119.7 64 118 C63.34 117.67 62.68 117.34 62 117 C61.375 114.9375 61.375 114.9375 61 113 C60.34 113 59.68 113 59 113 C59 111.35 59 109.7 59 108 C58.34 108 57.68 108 57 108 C56.87625 107.401875 56.7525 106.80375 56.625 106.1875 C56.04524015 103.73768652 56.04524015 103.73768652 54 101 C53.34 101 52.68 101 52 101 C52 100.34 52 99.68 52 99 C51.34 99 50.68 99 50 99 C49.505 97.02 49.505 97.02 49 95 C47.68 94.67 46.36 94.34 45 94 C45 93.34 45 92.68 45 92 C44.01 92 43.02 92 42 92 C42 91.34 42 90.68 42 90 C41.34 90 40.68 90 40 90 C40 89.34 40 88.68 40 88 C38.35 88 36.7 88 35 88 C35 87.01 35 86.02 35 85 C32.36 85 29.72 85 27 85 C26.505 84.01 26.505 84.01 26 83 C21.38 83 16.76 83 12 83 Z " fill="#000000" transform="translate(1017,143)"/>
<path d="M0 0 C0 48.84 0 97.68 0 148 C-6.93 148.99 -13.86 149.98 -21 151 C-26.85343457 152.80105679 -32.40244526 154.612974 -38 157 C-39.81757813 157.77150391 -39.81757813 157.77150391 -41.671875 158.55859375 C-64.99304723 169.36407022 -82.16306985 188.81657742 -91.20507812 212.72802734 C-100.32204874 238.78531499 -99.12157269 266.87702595 -87.1796875 291.9140625 C-83.28989718 299.69073814 -78.70234737 306.41115325 -73 313 C-72.39671875 313.804375 -71.7934375 314.60875 -71.171875 315.4375 C-68.55594578 318.52392009 -65.68949833 320.90530213 -62.5 323.375 C-61.8797998 323.85541748 -61.25959961 324.33583496 -60.62060547 324.83081055 C-42.16615114 338.88516805 -21.73021023 344.47442109 1 347 C0.505 420.26 0.505 420.26 0 495 C-40 495 -40 495 -46 492 C-45.9278125 491.17757813 -45.855625 490.35515625 -45.78125 489.5078125 C-44.34143703 472.19006211 -44.61885317 456.7822737 -55.96875 442.52734375 C-63.63975749 434.20318888 -74.58517764 428.24048423 -86.05078125 427.69921875 C-87.47122605 427.67974478 -88.89196616 427.67626287 -90.3125 427.6875 C-91.06088135 427.69313965 -91.8092627 427.6987793 -92.58032227 427.70458984 C-104.61141967 427.96763581 -114.47007818 432.48752605 -123.25 440.75 C-127.31504204 445.01333677 -130.20801386 449.83905593 -133 455 C-137.71172563 454.50475293 -140.43266206 453.36299293 -144.1875 450.5 C-145.14140625 449.77425781 -146.0953125 449.04851562 -147.078125 448.30078125 C-148.04234375 447.54152344 -149.0065625 446.78226562 -150 446 C-150.90234375 445.29230469 -151.8046875 444.58460938 -152.734375 443.85546875 C-168.17474335 431.47193633 -182.85906694 417.65715957 -195 402 C-195.84930917 400.95235313 -196.69960187 399.90550295 -197.55078125 398.859375 C-198.38918467 397.80300599 -199.22645313 396.74573505 -200.0625 395.6875 C-200.81660156 394.74261719 -201.57070312 393.79773438 -202.34765625 392.82421875 C-204.29586018 389.4943099 -204.74012035 387.78858809 -204 384 C-201.875 382.12890625 -201.875 382.12890625 -199 380.5625 C-186.39439875 373.15124792 -179.67155289 364.49826198 -175.69140625 350.29296875 C-173.05781955 337.74995413 -175.83161924 325.47309734 -182.29296875 314.53125 C-189.2296561 304.24526967 -200.10188196 298.1869959 -212 295 C-214.67205467 294.81344998 -217.20937163 294.71468949 -219.875 294.75 C-220.58390381 294.75386719 -221.29280762 294.75773437 -222.02319336 294.76171875 C-227.03670259 294.84480602 -231.22075652 295.60967462 -236 297 C-238.33300317 297.03925137 -240.66708883 297.04438357 -243 297 C-249.63689997 264.82162593 -249.47335414 230.1853074 -243 198 C-242.24493164 198.02094727 -241.48986328 198.04189453 -240.71191406 198.06347656 C-237.22474993 198.14764582 -233.73780056 198.19897679 -230.25 198.25 C-228.46916016 198.30027344 -228.46916016 198.30027344 -226.65234375 198.3515625 C-213.39313441 198.49647189 -202.01639303 194.8499741 -192.3125 185.6875 C-184.04586259 176.93237947 -179.83432572 166.57153306 -179.5625 154.5 C-180.04142878 139.37512011 -184.81285631 128.43207464 -195.7421875 117.984375 C-198.69113447 115.39256693 -201.72374502 113.16093413 -205 111 C-204.57444758 105.74138793 -201.73912946 102.46704003 -198.625 98.4375 C-198.08915283 97.73367187 -197.55330566 97.02984375 -197.0012207 96.3046875 C-192.75544456 90.80420808 -188.22622925 85.66140351 -183.4609375 80.609375 C-181.34735485 78.36830641 -179.31595137 76.08887083 -177.3125 73.75 C-170.5428132 65.98806596 -163.11698629 59.33225763 -155 53 C-154.38044434 52.51466797 -153.76088867 52.02933594 -153.12255859 51.52929688 C-151.13490406 49.98296323 -149.13276141 48.45760965 -147.125 46.9375 C-146.49456787 46.44789795 -145.86413574 45.9582959 -145.21459961 45.45385742 C-142.64644491 43.54151832 -140.43468692 42.10725221 -137.30859375 41.3359375 C-133.73862673 42.36283157 -132.82699709 44.57339843 -130.9375 47.6875 C-123.78353186 59.28967803 -115.08369562 65.84715463 -102 70 C-88.71155727 73.10961998 -76.50985764 69.55517078 -64.90625 62.85546875 C-55.31250347 56.73042896 -49.29160087 46.36056583 -46.2890625 35.40625 C-44.98430437 24.54502018 -46.52246461 14.52952541 -49 4 C-32.84891345 -0.88431842 -17.00863313 0 0 0 Z " fill="#F15E38" transform="translate(260,0)"/>
<path d="M0 0 C118.14 0 236.28 0 358 0 C358 28.05 358 56.1 358 85 C315.76 85 273.52 85 230 85 C230 195.88 230 306.76 230 421 C196.34 421 162.68 421 128 421 C128 310.12 128 199.24 128 85 C85.76 85 43.52 85 0 85 C0 56.95 0 28.9 0 0 Z " fill="#000000" transform="translate(1204,49)"/>
<path d="M0 0 C117.48 0 234.96 0 356 0 C356 28.05 356 56.1 356 85 C313.76 85 271.52 85 228 85 C228 195.88 228 306.76 228 421 C194.34 421 160.68 421 126 421 C126 310.12 126 199.24 126 85 C84.42 85 42.84 85 0 85 C0 56.95 0 28.9 0 0 Z " fill="#000000" transform="translate(533,49)"/>
<path d="M0 0 C34.32 0 68.64 0 104 0 C104 25.08 104 50.16 104 76 C122.15 76 140.3 76 159 76 C159 101.74 159 127.48 159 154 C142.17 154 125.34 154 108 154 C107.67 203.5 107.34 253 107 304 C107.66 304 108.32 304 109 304 C109.99 305.485 109.99 305.485 111 307 C111.99 307.33 112.98 307.66 114 308 C114 308.66 114 309.32 114 310 C126.54 310 139.08 310 152 310 C152 312.64 152 315.28 152 318 C152.66 318 153.32 318 154 318 C154.22786458 320.05078125 154.45572917 322.1015625 154.68359375 324.15234375 C154.81886614 326.01140229 154.81886614 326.01140229 156 327 C156.23192865 328.51469448 156.41215238 330.03754562 156.5625 331.5625 C156.64628906 332.38878906 156.73007813 333.21507812 156.81640625 334.06640625 C156.87699219 334.70449219 156.93757813 335.34257812 157 336 C157.66 336 158.32 336 159 336 C159.06058594 336.71027344 159.12117188 337.42054688 159.18359375 338.15234375 C159.26738281 339.07144531 159.35117188 339.99054688 159.4375 340.9375 C159.55931641 342.31228516 159.55931641 342.31228516 159.68359375 343.71484375 C159.76044976 345.96159732 159.76044976 345.96159732 161 347 C161.28101946 349.31952569 161.44782625 351.63885514 161.62109375 353.96875 C161.74613281 354.6390625 161.87117188 355.309375 162 356 C162.66 356.33 163.32 356.66 164 357 C166.30721222 367.86131036 165.09572645 379.96642169 165 391 C162.36 391 159.72 391 157 391 C157 391.66 157 392.32 157 393 C148.04395567 395.46456257 139.19822505 395.1920743 130 395 C130 395.99 130 396.98 130 398 C112.18 398 94.36 398 76 398 C76 397.34 76 396.68 76 396 C72.04 395.67 68.08 395.34 64 395 C64 394.34 64 393.68 64 393 C61.03 393 58.06 393 55 393 C55 392.34 55 391.68 55 391 C52.69 391 50.38 391 48 391 C48 390.01 48 389.02 48 388 C46.35 388 44.7 388 43 388 C43 387.34 43 386.68 43 386 C41.35 386 39.7 386 38 386 C37.67 385.34 37.34 384.68 37 384 C36.01 383.67 35.02 383.34 34 383 C33.01 382.34 32.02 381.68 31 381 C31 380.34 31 379.68 31 379 C29.35 378.67 27.7 378.34 26 378 C26 377.34 26 376.68 26 376 C25.34 376 24.68 376 24 376 C24 375.34 24 374.68 24 374 C23.34 374 22.68 374 22 374 C20.375 372.625 20.375 372.625 19 371 C19 370.34 19 369.68 19 369 C18.34 369 17.68 369 17 369 C17 367.68 17 366.36 17 365 C16.01 365 15.02 365 14 365 C14 364.01 14 363.02 14 362 C13.34 362 12.68 362 12 362 C11.54625 360.865625 11.0925 359.73125 10.625 358.5625 C9.42904194 354.95278308 9.42904194 354.95278308 7 354 C7 352.35 7 350.7 7 349 C6.34 349 5.68 349 5 349 C5 347.35 5 345.7 5 344 C4.34 344 3.68 344 3 344 C2.814375 342.5459375 2.814375 342.5459375 2.625 341.0625 C2.41875 340.051875 2.2125 339.04125 2 338 C1.34 337.67 0.68 337.34 0 337 C-0.37890625 334.53125 -0.37890625 334.53125 -0.5625 331.5 C-0.49321033 327.93669646 -0.49321033 327.93669646 -2 325 C-2.09701605 322.7850814 -2.12186691 320.56700203 -2.12025452 318.34996033 C-2.12110894 317.6467349 -2.12196337 316.94350947 -2.12284368 316.21897417 C-2.12450053 313.84509484 -2.1189738 311.47128502 -2.11352539 309.09741211 C-2.11324354 307.40270489 -2.11340122 305.70799755 -2.1139679 304.01329041 C-2.11425594 299.39778374 -2.10835809 294.78230283 -2.10139394 290.16680217 C-2.09516156 285.34879736 -2.09455669 280.53079203 -2.09336853 275.71278381 C-2.09025487 266.58257502 -2.08204102 257.45237814 -2.07201904 248.32217461 C-2.06085898 237.93057324 -2.05534772 227.53897132 -2.05032361 217.14736545 C-2.03985843 195.76490217 -2.02151252 174.38245522 -2 153 C-15.2 152.67 -28.4 152.34 -42 152 C-42 126.92 -42 101.84 -42 76 C-28.14 76 -14.28 76 0 76 C0 50.92 0 25.84 0 0 Z " fill="#000000" transform="translate(3584,77)"/>
<path d="M0 0 C34.32 0 68.64 0 104 0 C104 104.61 104 209.22 104 317 C69.68 317 35.36 317 0 317 C0 212.39 0 107.78 0 0 Z " fill="#000000" transform="translate(3037,153)"/>
<path d="M0 0 C1.09892578 -0.02900391 2.19785156 -0.05800781 3.33007812 -0.08789062 C13.20824503 -0.16446556 19.88044684 2.49566102 27.8125 8.3125 C29.2665625 9.364375 29.2665625 9.364375 30.75 10.4375 C38.15515237 16.81523594 42.97900518 26.08079108 45.8125 35.3125 C45.94140625 38.16796875 45.94140625 38.16796875 45.8125 40.3125 C46.73869141 39.91417969 46.73869141 39.91417969 47.68359375 39.5078125 C48.53050781 39.15460937 49.37742187 38.80140625 50.25 38.4375 C51.07371094 38.08945312 51.89742188 37.74140625 52.74609375 37.3828125 C65.95461046 32.77245125 83.15394184 31.6599452 96.23046875 37.06640625 C97.08253906 37.47761719 97.93460938 37.88882813 98.8125 38.3125 C99.71613281 38.71339844 100.61976563 39.11429688 101.55078125 39.52734375 C116.47012115 46.80764399 127.54460642 60.10364057 133.8125 75.3125 C139.4538563 92.3305915 139.6761026 111.08724081 134.8125 128.3125 C135.84310547 128.4671875 135.84310547 128.4671875 136.89453125 128.625 C151.06499346 131.96368989 163.07070201 142.29390312 170.8125 154.3125 C172.78954632 157.8841123 174.37796748 161.49233464 175.8125 165.3125 C176.29396484 166.57900391 176.29396484 166.57900391 176.78515625 167.87109375 C180.74608168 180.56447802 180.34583459 195.89610491 176.625 208.5625 C175.65669227 212.01874435 175.65669227 212.01874435 175.8125 215.3125 C178.03362239 218.60155599 180.66765305 220.98310799 183.6796875 223.5078125 C196.31414656 234.21511185 202.61469758 253.43730219 204.8125 269.3125 C206.07833062 291.97573667 202.39713001 315.21417328 187.8125 333.3125 C186.45771077 334.54345109 185.08445463 335.754617 183.6875 336.9375 C181.62707794 338.8855354 180.84140135 339.63813515 180.71875 342.5 C181.23539804 345.1865698 181.96957298 347.70977796 182.8125 350.3125 C187.62204683 365.92084064 188.72890832 385.20844321 181.8125 400.3125 C181.38839844 401.24707031 180.96429688 402.18164062 180.52734375 403.14453125 C172.87155651 418.39212979 160.91461171 429.5184347 144.8125 435.3125 C139.03039652 437.02438571 133.88943536 437.63436012 127.875 437.5625 C126.69574951 437.55669922 126.69574951 437.55669922 125.49267578 437.55078125 C120.02349418 437.46916859 115.07854164 436.87280863 109.8125 435.3125 C109.60625 436.55 109.4 437.7875 109.1875 439.0625 C106.6593208 450.16905278 100.68826741 458.33349219 92.8125 466.3125 C92.008125 467.22 91.20375 468.1275 90.375 469.0625 C79.56613369 478.55321188 67.59619466 480.72031746 53.51953125 480.58984375 C49.84519693 480.31494624 46.57075984 479.56445512 43 478.6875 C39.85795238 477.988672 39.85795238 477.988672 36.8125 478.3125 C33.72467964 480.46607926 31.53581613 482.83307885 29.09375 485.69140625 C24.57701327 490.881013 17.95928906 494.87910118 11.03271484 495.60302734 C7.75056301 495.65255519 4.47005337 495.68381588 1.1875 495.6875 C0.06214844 495.71199219 -1.06320312 495.73648437 -2.22265625 495.76171875 C-15.70767601 495.8084876 -24.67627713 491.37549438 -34.34765625 482.28125 C-48.75730431 467.41372528 -48.34699724 446.74027704 -48.35546875 427.3984375 C-48.35869025 425.65743992 -48.36205496 423.9164426 -48.36555481 422.17544556 C-48.37151752 418.53606541 -48.37339775 414.8967089 -48.37280273 411.25732422 C-48.37270146 406.63835056 -48.38633038 402.01953181 -48.40357494 397.40059471 C-48.41480261 393.80562674 -48.41671865 390.2106949 -48.41619301 386.61571121 C-48.41735788 384.91520277 -48.42169353 383.21469292 -48.42952538 381.51420212 C-48.50946802 362.35963411 -47.93179468 343.08118157 -36.09741211 327.15576172 C-34.08944266 324.34352383 -33.18365348 322.69570951 -33.21875 319.19921875 C-34.2551329 316.11096485 -35.4964469 314.11949711 -37.5 311.5625 C-45.9082472 300.05285015 -47.49261813 287.64246535 -47.4621582 273.69702148 C-47.46726913 272.47441116 -47.47238007 271.25180084 -47.47764587 269.99214172 C-47.48909759 266.66516939 -47.4916257 263.3384477 -47.48908257 260.01147342 C-47.48800473 257.2165707 -47.49291737 254.42169036 -47.497688 251.62679249 C-47.50874975 245.01932542 -47.50924093 238.41191519 -47.50317383 231.80444336 C-47.49715109 225.03348773 -47.50940929 218.2627408 -47.5307439 211.49182075 C-47.54848575 205.64170701 -47.55434122 199.7916589 -47.55110615 193.94151932 C-47.54931136 190.46406725 -47.55174451 186.98676369 -47.56582069 183.50933647 C-47.71675628 142.67728103 -47.71675628 142.67728103 -36.75 125.375 C-34.83383771 122.49685782 -34.83383771 122.49685782 -35.90625 119.97265625 C-37.25318604 117.17612137 -38.67216979 114.43050259 -40.125 111.6875 C-45.61742832 100.78302035 -47.33750549 89.76830873 -47.35546875 77.67578125 C-47.35879715 76.87448288 -47.36212555 76.07318451 -47.36555481 75.24760437 C-47.3705866 73.56099007 -47.3729643 71.87436594 -47.37280273 70.18774414 C-47.37497936 67.64907813 -47.39314814 65.11085449 -47.41210938 62.57226562 C-47.47966998 43.53322021 -45.32487601 26.13165513 -32.1875 11.3125 C-22.46854518 2.25405667 -12.89510017 0.11148502 0 0 Z M-23.1875 24.3125 C-30.90771835 36.74723904 -32.52696162 47.85752571 -32.44824219 62.28588867 C-32.43757127 64.60948071 -32.44815579 66.93229157 -32.4609375 69.25585938 C-32.4795484 87.3636616 -29.70134577 103.3445806 -17.1875 117.3125 C-9.82924971 124.09116208 -0.12050474 128.25534403 9.9375 128.75 C21.37945112 127.45816681 32.13265855 123.26401864 40.08984375 114.6484375 C48.42095728 103.35137199 51.56041459 90.94354328 53.8125 77.3125 C57.1125 76.6525 60.4125 75.9925 63.8125 75.3125 C66.50290495 86.07411978 64.98756012 99.03010062 59.5625 108.75 C57.3990931 113.15407833 57.31168778 114.65208311 58.8125 119.3125 C60.46184196 122.13442101 62.23323541 124.85129182 64.03515625 127.578125 C69.87101327 136.55636657 71.23384704 145.89578236 72.8125 156.3125 C79.91395804 158.67965268 87.41421697 155.28995359 93.875 152.25 C107.64594471 145.16822718 116.04318862 134.41039054 121.0859375 119.91796875 C125.481815 104.1542575 122.81793412 87.63864074 115.5 73.25 C108.420641 61.11181788 97.15094614 53.54620475 83.8125 49.3125 C71.92653506 46.58787111 60.41939853 49.54172486 50.0078125 55.765625 C43.49996455 60.35122605 37.91266128 65.47889786 33.8125 72.3125 C31.01379973 73.71185013 28.90751208 73.56515405 25.8125 73.3125 C23.9375 72.1875 23.9375 72.1875 22.8125 70.3125 C22.21752492 66.48766018 22.59308394 64.702573 24.5 61.3125 C26.8125 58.3125 26.8125 58.3125 29.5625 55.5625 C32.71465734 51.00938384 32.74919254 47.69092811 31.8125 42.3125 C28.59708587 31.73978234 23.59604272 23.35013605 14.10546875 17.5 C2.03650515 11.24963384 -14.07412308 14.02630453 -23.1875 24.3125 Z M39.8125 132.5625 C26.36635443 141.21648141 10.19331632 143.03161128 -5.53027344 139.83642578 C-10.09983836 138.52154615 -14.18631681 136.49587386 -18.26171875 134.0859375 C-20.1593959 133.18421582 -20.1593959 133.18421582 -22.2421875 133.31640625 C-25.29010028 134.87708448 -25.94103766 137.17318528 -27.3125 140.25 C-27.81007813 141.33152344 -28.30765625 142.41304687 -28.8203125 143.52734375 C-32.14350305 152.02654716 -32.48225632 160.69115137 -32.4621582 169.71606445 C-32.46726913 170.91583923 -32.47238007 172.11561401 -32.47764587 173.35174561 C-32.4890928 176.6143671 -32.49162688 179.87682947 -32.48908257 183.13946557 C-32.48800508 185.87758298 -32.49291608 188.61567753 -32.497688 191.35378999 C-32.50874558 197.82205938 -32.50924214 204.29027068 -32.50317383 210.75854492 C-32.49714017 217.39779689 -32.50943812 224.03683661 -32.5307439 230.67605239 C-32.54844648 236.40635968 -32.55434762 242.13659995 -32.55110615 247.86693352 C-32.5493065 251.27607169 -32.55179566 254.6850585 -32.56582069 258.09417152 C-32.57824996 261.90319474 -32.57135394 265.71173561 -32.55981445 269.52075195 C-32.56745819 270.62714523 -32.57510193 271.73353851 -32.58297729 272.87345886 C-32.49783977 285.68100326 -30.07443356 297.42048022 -21.625 307.3125 C-19.14697007 309.34575533 -18.29431695 309.99966079 -15.1875 310.3125 C-12.03940522 309.37486408 -12.03940522 309.37486408 -8.75 307.9375 C-4.86943969 306.32771948 -1.31325017 305.07171159 2.8125 304.3125 C2.90225098 303.6827124 2.99200195 303.0529248 3.08447266 302.40405273 C3.51064077 299.51507875 3.97371055 296.63316356 4.4375 293.75 C4.57800781 292.75935547 4.71851563 291.76871094 4.86328125 290.74804688 C5.9165613 284.40730096 7.44388808 279.27692493 12.8125 275.3125 C16.38489465 274.83618071 18.57895861 274.6957293 21.8125 276.3125 C22.15296569 281.5897182 22.07619311 285.19363752 19.8125 290 C16.84029455 296.7694359 16.66334926 304.32695371 18.3203125 311.515625 C19.05828291 313.53503859 19.05828291 313.53503859 20.8125 316.3125 C21.30556641 317.18261719 21.30556641 317.18261719 21.80859375 318.0703125 C24.69966814 322.69203004 28.28975779 325.25157135 32.921875 328.05078125 C34.8125 329.3125 34.8125 329.3125 35.8125 331.3125 C36 334.8125 36 334.8125 35.8125 338.3125 C33.8125 340.3125 33.8125 340.3125 30.6875 340.6875 C22.42725814 339.88812176 17.88945422 335.89220019 12.6171875 329.70703125 C10.48617578 326.87952002 8.81278 323.94795079 7.30859375 320.74609375 C5.76517658 318.98214184 5.76517658 318.98214184 2.59765625 318.90625 C-5.52952944 319.77851761 -15.10137773 324.80507654 -20.59765625 330.97265625 C-32.46586345 348.43962458 -33.34177544 365.97376379 -33.390625 386.51953125 C-33.39345238 387.33044409 -33.39627975 388.14135693 -33.39919281 388.97684288 C-33.41408748 393.26589649 -33.42337904 397.55491728 -33.42773438 401.84399414 C-33.43321465 406.23116083 -33.45726155 410.61801655 -33.48570633 415.00508595 C-33.50448572 418.41896909 -33.5095463 421.83277943 -33.51107025 425.24670982 C-33.51406127 426.86235954 -33.52196657 428.47800911 -33.53525543 430.09360695 C-33.63851361 443.60748264 -33.04713613 456.75858695 -25.1875 468.3125 C-24.61 469.199375 -24.0325 470.08625 -23.4375 471 C-17.21548304 477.39485077 -10.28731292 480.89448255 -1.375 481.625 C9.01647027 481.22532807 16.74718415 476.8769355 23.8125 469.3125 C29.75776006 460.27000865 31.8778996 450.93743088 32.8125 440.3125 C40.4375 439.0625 40.4375 439.0625 43.8125 441.3125 C46.04455392 448.00866177 44.6858058 455.43521685 43.8125 462.3125 C54.01161537 465.88964276 62.71236045 466.79641845 72.8125 462.3125 C83.19083732 456.34316667 90.50486277 447.49846118 94.8125 436.3125 C97.99042912 424.1553215 96.39514699 410.82700387 90.4921875 399.859375 C85.6113277 392.01799369 79.25954319 385.21113532 70.8125 381.3125 C69.4925 381.3125 68.1725 381.3125 66.8125 381.3125 C64.95935219 383.38356992 64.95935219 383.38356992 63.375 386.0625 C59.45340499 391.9782678 55.50560294 395.68775375 48.8125 398.3125 C46.05063339 398.5968098 43.60576315 398.50187377 40.8125 398.3125 C39.27324144 396.77324144 39.38324351 395.32617906 39.1875 393.1875 C39.20283093 389.96289442 39.40372621 388.7456782 41.64453125 386.37109375 C43.23831186 385.18963449 44.85540131 384.03909032 46.4921875 382.91796875 C52.32063785 378.8851521 55.74124523 373.01623854 57.8125 366.3125 C59.01538378 358.69423609 56.62383275 351.50716531 53.625 344.5625 C52.57085656 341.64333355 52.47784949 339.39128471 52.8125 336.3125 C53.875 334.4375 53.875 334.4375 55.8125 333.3125 C59.1875 332.625 59.1875 332.625 62.8125 333.3125 C68.41392068 339.23567331 70.00099588 346.9890833 70.375 354.875 C70.49739806 357.35543412 70.64116663 359.83496502 70.8125 362.3125 C70.83054687 363.21097656 70.84859375 364.10945312 70.8671875 365.03515625 C72.41297224 368.75909221 75.8741648 369.67348825 79.375 371.1875 C92.67164843 377.40481929 99.76901732 385.86655321 105.73046875 399.265625 C107.34846359 403.82171155 108.11874957 408.47495119 108.84375 413.24609375 C110.04177135 417.03821779 111.50841323 418.19092849 114.8125 420.3125 C123.21845456 423.74350186 132.88043938 423.29051145 141.37890625 420.33984375 C152.89924297 415.47652343 161.64144921 407.42561282 166.81640625 395.9296875 C172.57500835 380.79924276 171.56017765 367.4457225 166.8125 352.3125 C162.46452867 352.81746 158.90817156 353.55890596 154.9375 355.375 C145.02194961 359.10357473 133.01937952 358.84121413 123.29296875 354.6328125 C113.56711068 349.45589907 104.12344037 342.40287081 99.4375 332.25 C98.17748979 329.85100044 98.17748979 329.85100044 95.8125 328.3125 C91.84260336 327.63968553 87.88132518 327.82918959 83.87939453 328.11694336 C78.24526246 328.51470654 74.84184728 327.95239965 69.8125 325.3125 C69.8125 322.3425 69.8125 319.3725 69.8125 316.3125 C70.92367187 316.27511719 72.03484375 316.23773438 73.1796875 316.19921875 C87.21903798 315.92780884 87.21903798 315.92780884 99.625 310.125 C100.346875 309.196875 101.06875 308.26875 101.8125 307.3125 C102.23015625 306.78140625 102.6478125 306.2503125 103.078125 305.703125 C106.86667879 300.36263351 108.33331345 294.58722441 109.91796875 288.2890625 C110.8125 285.3125 110.8125 285.3125 112.8125 283.3125 C115.46787372 282.74729997 118.10394713 282.57461802 120.8125 282.3125 C124.04582404 288.01836595 122.6986698 294.04790555 121.05859375 300.08984375 C118.64580208 307.28783732 115.22067339 313.90432661 109.8125 319.3125 C109.8125 325.25514313 112.85761813 329.18801306 116.8125 333.3125 C124.85890279 340.07631828 132.06498298 345.06285033 142.84765625 344.72265625 C152.21701152 343.42650038 159.90834415 338.52874177 166.8125 332.3125 C167.97265625 331.27416016 167.97265625 331.27416016 169.15625 330.21484375 C182.86759745 317.25762041 189.36854695 298.47038684 190.1875 279.8125 C189.4625863 263.32859287 184.16922318 249.13786483 173.8125 236.3125 C173.17183594 235.50683594 172.53117188 234.70117188 171.87109375 233.87109375 C161.80621849 221.85424269 149.22714629 216.14757694 133.8125 214.3125 C127.52171164 213.81585881 121.8939924 214.70227033 115.8125 216.3125 C115.65394531 217.07433594 115.49539063 217.83617187 115.33203125 218.62109375 C113.78190361 225.48105086 111.97708173 233.14791827 106.8125 238.3125 C105.12641034 238.38455511 103.43749341 238.39636068 101.75 238.375 C100.37134766 238.36146484 100.37134766 238.36146484 98.96484375 238.34765625 C97.89943359 238.33025391 97.89943359 238.33025391 96.8125 238.3125 C95.33812061 235.36374123 95.45160491 233.62070503 95.8125 230.3125 C96.57161203 228.80523785 97.39011844 227.32713428 98.25 225.875 C101.396569 220.52940834 102.1006478 216.58166391 101.3125 210.375 C100.10811578 206.09735949 97.59540493 203.33825807 94.56640625 200.171875 C89.79862263 195.11738725 89.79862263 195.11738725 89.875 190.6875 C90.8125 187.3125 90.8125 187.3125 92.5 185.8125 C95.82220918 185.0941845 97.53347981 185.24051263 100.8125 186.3125 C104.3963284 188.7486584 107.87192823 191.36716243 109.7890625 195.33227539 C110.94743677 197.6778276 111.96681963 199.44988428 113.8125 201.3125 C117.47179336 202.25659691 120.94620116 201.91977634 124.6875 201.625 C126.75997647 201.53936586 128.8329562 201.46515111 130.90625 201.40234375 C131.91558594 201.37124512 132.92492187 201.34014648 133.96484375 201.30810547 C140.10295556 201.31757786 145.8879561 202.79623096 151.8125 204.3125 C153.62382708 204.7136664 155.43616704 205.11032028 157.25 205.5 C158.425625 205.768125 159.60125 206.03625 160.8125 206.3125 C165.36513501 196.06907122 165.48896983 183.49047565 162.1875 172.8125 C157.48090625 160.87261481 150.42075871 151.18088171 138.8125 145.3125 C132.46008069 142.51727113 132.46008069 142.51727113 125.8125 143.3125 C123.86113192 145.3131597 122.05526477 147.31372804 120.25 149.4375 C107.45489505 163.81217504 90.58233705 169.52489647 71.8125 171.3125 C71.39291016 172.74529297 71.39291016 172.74529297 70.96484375 174.20703125 C67.87684443 184.33041287 64.36745194 193.85815625 55.75 200.5625 C53.89702709 202.13910047 53.89702709 202.13910047 52.8125 204.3125 C52.8216988 207.99661989 53.4328262 211.46165594 54.109375 215.06640625 C56.05511837 225.70563122 56.15584561 238.27100372 51.8125 248.3125 C49.8125 250.3125 49.8125 250.3125 46.3125 250.5 C42.8125 250.3125 42.8125 250.3125 40.8125 249.3125 C40.78524659 247.5834226 40.76599013 245.85421824 40.75 244.125 C40.73839844 243.16207031 40.72679687 242.19914062 40.71484375 241.20703125 C40.8080436 238.44458767 41.24969566 236.01052387 41.8125 233.3125 C42.95637647 219.38800377 38.94753131 207.54970313 30.375 196.6875 C23.03861078 188.75476913 12.12005563 184.80626346 1.8125 182.3125 C0.5625 175.6875 0.5625 175.6875 2.8125 172.3125 C13.51709116 169.87110202 22.68303103 173.69983036 31.8125 179.3125 C36.36796275 182.88612942 40.58952757 186.47804135 43.8125 191.3125 C44.8025 191.3125 45.7925 191.3125 46.8125 191.3125 C53.51388056 183.27395301 58.0657264 172.76733035 58.8125 162.3125 C58.87566406 161.51585937 58.93882812 160.71921875 59.00390625 159.8984375 C59.48290421 149.17506378 56.25120114 139.71836015 50.375 130.82421875 C46.6496574 127.21994979 43.22880067 130.14262036 39.8125 132.5625 Z " fill="#F68F3D" transform="translate(315.1875,-0.3125)"/>
<path d="M0 0 C1.14984375 -0.00386719 2.2996875 -0.00773437 3.484375 -0.01171875 C14.99420991 0.00154143 14.99420991 0.00154143 20 1.125 C20.495 2.115 20.495 2.115 21 3.125 C24.02934491 3.78272428 24.02934491 3.78272428 27 4.125 C27 4.785 27 5.445 27 6.125 C28.65 6.125 30.3 6.125 32 6.125 C32 6.785 32 7.445 32 8.125 C33.65 8.455 35.3 8.785 37 9.125 C37 9.785 37 10.445 37 11.125 C37.66 11.125 38.32 11.125 39 11.125 C39 11.785 39 12.445 39 13.125 C39.66 13.125 40.32 13.125 41 13.125 C46 18.48214286 46 18.48214286 46 22.125 C46.99 22.125 47.98 22.125 49 22.125 C49 23.445 49 24.765 49 26.125 C49.66 26.125 50.32 26.125 51 26.125 C51 27.445 51 28.765 51 30.125 C51.66 30.125 52.32 30.125 53 30.125 C53.185625 31.0840625 53.185625 31.0840625 53.375 32.0625 C53.684375 33.0834375 53.684375 33.0834375 54 34.125 C54.66 34.455 55.32 34.785 56 35.125 C56 44.365 56 53.605 56 63.125 C55.01 63.62 55.01 63.62 54 64.125 C53.59270772 66.44656597 53.25561323 68.7818787 53 71.125 C52.34 71.125 51.68 71.125 51 71.125 C51 72.775 51 74.425 51 76.125 C50.34 76.125 49.68 76.125 49 76.125 C49 77.445 49 78.765 49 80.125 C48.01 80.125 47.02 80.125 46 80.125 C46 81.115 46 82.105 46 83.125 C45.34 83.125 44.68 83.125 44 83.125 C44 84.115 44 85.105 44 86.125 C43.01 86.125 42.02 86.125 41 86.125 C41 86.785 41 87.445 41 88.125 C40.34 88.125 39.68 88.125 39 88.125 C39 89.115 39 90.105 39 91.125 C38.34 91.125 37.68 91.125 37 91.125 C36.67 91.785 36.34 92.445 36 93.125 C33.9375 93.75 33.9375 93.75 32 94.125 C32 94.785 32 95.445 32 96.125 C29.03 97.445 26.06 98.765 23 100.125 C23 100.455 23 100.785 23 101.125 C19.7 101.125 16.4 101.125 13 101.125 C13 101.785 13 102.445 13 103.125 C6.73 103.125 0.46 103.125 -6 103.125 C-6 102.465 -6 101.805 -6 101.125 C-9.63 101.125 -13.26 101.125 -17 101.125 C-17.33 100.135 -17.66 99.145 -18 98.125 C-20.31 98.125 -22.62 98.125 -25 98.125 C-25 97.465 -25 96.805 -25 96.125 C-25.8971875 95.939375 -25.8971875 95.939375 -26.8125 95.75 C-29 95.125 -29 95.125 -32 93.125 C-32 92.465 -32 91.805 -32 91.125 C-33.65 91.125 -35.3 91.125 -37 91.125 C-37 90.135 -37 89.145 -37 88.125 C-37.66 88.125 -38.32 88.125 -39 88.125 C-39 87.465 -39 86.805 -39 86.125 C-39.66 86.125 -40.32 86.125 -41 86.125 C-41 85.465 -41 84.805 -41 84.125 C-41.99 84.125 -42.98 84.125 -44 84.125 C-44 83.135 -44 82.145 -44 81.125 C-44.66 81.125 -45.32 81.125 -46 81.125 C-46 80.135 -46 79.145 -46 78.125 C-46.99 78.125 -47.98 78.125 -49 78.125 C-51.09350689 74.7230513 -51.17942163 72.07227588 -51 68.125 C-51.66 68.125 -52.32 68.125 -53 68.125 C-53.33 65.155 -53.66 62.185 -54 59.125 C-54.66 59.125 -55.32 59.125 -56 59.125 C-56 54.175 -56 49.225 -56 44.125 C-55.34 44.125 -54.68 44.125 -54 44.125 C-53.67 41.485 -53.34 38.845 -53 36.125 C-52.34 36.125 -51.68 36.125 -51 36.125 C-51 34.145 -51 32.165 -51 30.125 C-50.34 30.125 -49.68 30.125 -49 30.125 C-49 28.475 -49 26.825 -49 25.125 C-48.01 25.125 -47.02 25.125 -46 25.125 C-46 24.135 -46 23.145 -46 22.125 C-45.34 22.125 -44.68 22.125 -44 22.125 C-44 20.805 -44 19.485 -44 18.125 C-43.01 18.125 -42.02 18.125 -41 18.125 C-40.34 16.475 -39.68 14.825 -39 13.125 C-38.34 13.125 -37.68 13.125 -37 13.125 C-37 12.465 -37 11.805 -37 11.125 C-36.01 11.125 -35.02 11.125 -34 11.125 C-34 10.135 -34 9.145 -34 8.125 C-32.68 8.125 -31.36 8.125 -30 8.125 C-30 7.465 -30 6.805 -30 6.125 C-28.35 6.125 -26.7 6.125 -25 6.125 C-25 5.465 -25 4.805 -25 4.125 C-23.35 4.125 -21.7 4.125 -20 4.125 C-20 3.135 -20 2.145 -20 1.125 C-13.34257144 -0.09423837 -6.75247495 -0.02271012 0 0 Z " fill="#000000" transform="translate(3088,18.875)"/>
<path d="" fill="#000000" transform="translate(0,0)"/>
<path d="" fill="#000000" transform="translate(0,0)"/>
<path d="" fill="#000000" transform="translate(0,0)"/>
</svg>
